M48
; DRILL file {KiCad 8.0.5} date 2025-03-12T17:27:37-0500
; FORMAT={-:-/ absolute / inch / decimal}
; #@! TF.CreationDate,2025-03-12T17:27:37-05:00
; #@! TF.GenerationSoftware,Kicad,Pcbnew,8.0.5
; #@! TF.FileFunction,Plated,1,2,PTH
FMAT,2
INCH
; #@! TA.AperFunction,Plated,PTH,ViaDrill
T1C0.0118
; #@! TA.AperFunction,Plated,PTH,ComponentDrill
T2C0.0402
; #@! TA.AperFunction,Plated,PTH,ComponentDrill
T3C0.0701
; #@! TA.AperFunction,Plated,PTH,ComponentDrill
T4C0.0787
%
G90
G05
T1
X6.8504Y-2.7717
X6.8701Y-2.2244
X6.9016Y-2.6772
X6.9075Y-2.874
X6.9685Y-2.7362
X7.0084Y-2.9071
X7.0669Y-2.2244
X7.1096Y-2.9582
X7.1457Y-3.0906
X7.3425Y-3.1299
X7.4409Y-2.9154
X7.5Y-3.248
X7.5197Y-3.937
X7.5394Y-2.9419
X7.5787Y-2.9921
X7.6181Y-2.9921
X7.6378Y-2.9331
X7.6378Y-3.1102
X7.6378Y-3.1496
X7.6418Y-3.0749
X7.6969Y-3.937
X8.189Y-3.1301
X8.248Y-3.0906
X8.3093Y-2.9836
X8.3268Y-3.0709
T2
X8.3961Y-2.4992
X8.3961Y-2.5992
X8.3961Y-2.6992
X8.3961Y-2.7992
X8.3961Y-2.8992
X8.3961Y-2.9992
X8.3961Y-3.0992
X8.3961Y-3.1992
X8.3961Y-3.2992
X8.3961Y-3.3992
X8.3961Y-3.4992
X8.3961Y-3.5992
X8.3961Y-3.6992
X8.3961Y-3.7992
X8.3961Y-3.8992
X8.9961Y-2.4992
X8.9961Y-2.5992
X8.9961Y-2.6992
X8.9961Y-2.7992
X8.9961Y-2.8992
X8.9961Y-2.9992
X8.9961Y-3.0992
X8.9961Y-3.1992
X8.9961Y-3.2992
X8.9961Y-3.3992
X8.9961Y-3.4992
X8.9961Y-3.5992
X8.9961Y-3.6992
X8.9961Y-3.7992
X8.9961Y-3.8992
T3
X6.4488Y-2.2654
X6.4488Y-2.6559
X6.4488Y-2.9543
X6.4488Y-3.3449
X6.5827Y-2.2654
X6.5827Y-2.6559
X6.5827Y-2.9543
X6.5827Y-3.3449
T4
X6.061Y-3.3268
X6.063Y-2.7559
X6.5157Y-3.7795
X7.126Y-3.7598
M30
