%TF.GenerationSoftware,KiCad,Pcbnew,8.0.5*%
%TF.CreationDate,2025-03-29T10:41:36-05:00*%
%TF.ProjectId,ADC_Board,4144435f-426f-4617-9264-2e6b69636164,rev?*%
%TF.SameCoordinates,Original*%
%TF.FileFunction,Paste,Top*%
%TF.FilePolarity,Positive*%
%FSLAX46Y46*%
G04 Gerber Fmt 4.6, Leading zero omitted, Abs format (unit mm)*
G04 Created by KiCad (PCBNEW 8.0.5) date 2025-03-29 10:41:36*
%MOMM*%
%LPD*%
G01*
G04 APERTURE LIST*
G04 Aperture macros list*
%AMRoundRect*
0 Rectangle with rounded corners*
0 $1 Rounding radius*
0 $2 $3 $4 $5 $6 $7 $8 $9 X,Y pos of 4 corners*
0 Add a 4 corners polygon primitive as box body*
4,1,4,$2,$3,$4,$5,$6,$7,$8,$9,$2,$3,0*
0 Add four circle primitives for the rounded corners*
1,1,$1+$1,$2,$3*
1,1,$1+$1,$4,$5*
1,1,$1+$1,$6,$7*
1,1,$1+$1,$8,$9*
0 Add four rect primitives between the rounded corners*
20,1,$1+$1,$2,$3,$4,$5,0*
20,1,$1+$1,$4,$5,$6,$7,0*
20,1,$1+$1,$6,$7,$8,$9,0*
20,1,$1+$1,$8,$9,$2,$3,0*%
G04 Aperture macros list end*
%ADD10C,0.000000*%
%ADD11RoundRect,0.250000X0.475000X-0.250000X0.475000X0.250000X-0.475000X0.250000X-0.475000X-0.250000X0*%
%ADD12RoundRect,0.243750X-0.456250X0.243750X-0.456250X-0.243750X0.456250X-0.243750X0.456250X0.243750X0*%
%ADD13RoundRect,0.250000X-0.475000X0.250000X-0.475000X-0.250000X0.475000X-0.250000X0.475000X0.250000X0*%
%ADD14RoundRect,0.250000X0.625000X-0.312500X0.625000X0.312500X-0.625000X0.312500X-0.625000X-0.312500X0*%
%ADD15R,0.838200X1.600200*%
%ADD16RoundRect,0.400050X-1.191800X-0.400050X1.191800X-0.400050X1.191800X0.400050X-1.191800X0.400050X0*%
%ADD17R,1.409700X0.355600*%
%ADD18R,0.399999X0.850001*%
%ADD19R,1.879600X0.558800*%
%ADD20RoundRect,0.250000X0.625000X-0.400000X0.625000X0.400000X-0.625000X0.400000X-0.625000X-0.400000X0*%
%ADD21RoundRect,0.250000X0.250000X0.475000X-0.250000X0.475000X-0.250000X-0.475000X0.250000X-0.475000X0*%
%ADD22RoundRect,0.243750X0.456250X-0.243750X0.456250X0.243750X-0.456250X0.243750X-0.456250X-0.243750X0*%
%ADD23RoundRect,0.250000X-0.250000X-0.475000X0.250000X-0.475000X0.250000X0.475000X-0.250000X0.475000X0*%
%ADD24R,2.602784X0.622132*%
G04 APERTURE END LIST*
D10*
%TO.C,U6*%
G36*
X182799600Y-55699700D02*
G01*
X179650000Y-55699700D01*
X179650000Y-54099500D01*
X182799600Y-54099500D01*
X182799600Y-55699700D01*
G37*
%TD*%
D11*
%TO.C,C1*%
X173500000Y-68950000D03*
X173500000Y-67050000D03*
%TD*%
D12*
%TO.C,D6*%
X192700000Y-55162500D03*
X192700000Y-57037500D03*
%TD*%
D13*
%TO.C,C9*%
X179500000Y-72550000D03*
X179500000Y-74450000D03*
%TD*%
D14*
%TO.C,R6*%
X172600000Y-82262500D03*
X172600000Y-79337500D03*
%TD*%
D15*
%TO.C,U6*%
X178924800Y-61300400D03*
X181224800Y-61300400D03*
X183524800Y-61300400D03*
D16*
X181224800Y-54900000D03*
%TD*%
D17*
%TO.C,IC2*%
X181994500Y-72075000D03*
X181994500Y-72725001D03*
X181994500Y-73374999D03*
X181994500Y-74025001D03*
X181994500Y-74674999D03*
X181994500Y-75324998D03*
X181994500Y-75974999D03*
X181994500Y-76624998D03*
X181994500Y-77274999D03*
X181994500Y-77924998D03*
X187900000Y-77925000D03*
X187900000Y-77275002D03*
X187900000Y-76625001D03*
X187900000Y-75975002D03*
X187900000Y-75325001D03*
X187900000Y-74675002D03*
X187900000Y-74025001D03*
X187900000Y-73375002D03*
X187900000Y-72725001D03*
X187900000Y-72075002D03*
%TD*%
D18*
%TO.C,U3*%
X176650001Y-67875001D03*
X176000000Y-67875001D03*
X175350001Y-67875001D03*
X175350001Y-70125002D03*
X176000000Y-70125002D03*
X176650001Y-70125002D03*
%TD*%
D12*
%TO.C,D5*%
X188800000Y-55212500D03*
X188800000Y-57087500D03*
%TD*%
D11*
%TO.C,C6*%
X208000000Y-90450000D03*
X208000000Y-88550000D03*
%TD*%
D13*
%TO.C,C12*%
X193000000Y-82550000D03*
X193000000Y-84450000D03*
%TD*%
D11*
%TO.C,C8*%
X193000000Y-94000000D03*
X193000000Y-92100000D03*
%TD*%
D19*
%TO.C,IC1*%
X205237100Y-93445000D03*
X205237100Y-92175000D03*
X205237100Y-90905000D03*
X205237100Y-89635000D03*
X205237100Y-88365000D03*
X205237100Y-87095000D03*
X205237100Y-85825000D03*
X205237100Y-84555000D03*
X195762900Y-84555000D03*
X195762900Y-85825000D03*
X195762900Y-87095000D03*
X195762900Y-88365000D03*
X195762900Y-89635000D03*
X195762900Y-90905000D03*
X195762900Y-92175000D03*
X195762900Y-93445000D03*
%TD*%
D11*
%TO.C,C15*%
X176100000Y-61550000D03*
X176100000Y-59650000D03*
%TD*%
D13*
%TO.C,C7*%
X193000000Y-88100000D03*
X193000000Y-90000000D03*
%TD*%
D20*
%TO.C,R8*%
X192500000Y-62150000D03*
X192500000Y-59050000D03*
%TD*%
%TO.C,R7*%
X188900000Y-62400000D03*
X188900000Y-59300000D03*
%TD*%
D11*
%TO.C,C13*%
X186300000Y-59350000D03*
X186300000Y-57450000D03*
%TD*%
D21*
%TO.C,C10*%
X187950000Y-70000000D03*
X186050000Y-70000000D03*
%TD*%
D18*
%TO.C,U4*%
X175650001Y-75875001D03*
X175000000Y-75875001D03*
X174350001Y-75875001D03*
X174350001Y-78125002D03*
X175000000Y-78125002D03*
X175650001Y-78125002D03*
%TD*%
D21*
%TO.C,C5*%
X207450000Y-95500000D03*
X205550000Y-95500000D03*
%TD*%
D22*
%TO.C,D1*%
X178820002Y-69992499D03*
X178820002Y-68117499D03*
%TD*%
D23*
%TO.C,C14*%
X207850000Y-82000000D03*
X209750000Y-82000000D03*
%TD*%
%TO.C,C4*%
X171050000Y-76500000D03*
X172950000Y-76500000D03*
%TD*%
D24*
%TO.C,IC7*%
X205065495Y-81445000D03*
X205065495Y-80175000D03*
X205065495Y-78905000D03*
X205065495Y-77635000D03*
X205065495Y-76365000D03*
X205065495Y-75095000D03*
X205065495Y-73825000D03*
X205065495Y-72555000D03*
X195934502Y-72555000D03*
X195934502Y-73825000D03*
X195934502Y-75095000D03*
X195934502Y-76365000D03*
X195934502Y-77635000D03*
X195934502Y-78905000D03*
X195934502Y-80175000D03*
X195934502Y-81445000D03*
%TD*%
D22*
%TO.C,D4*%
X177485004Y-78019999D03*
X177485004Y-76144999D03*
%TD*%
D14*
%TO.C,R3*%
X173400000Y-73862500D03*
X173400000Y-70937500D03*
%TD*%
D13*
%TO.C,C11*%
X190500000Y-71550000D03*
X190500000Y-73450000D03*
%TD*%
M02*
