%TF.GenerationSoftware,KiCad,Pcbnew,8.0.5*%
%TF.CreationDate,2025-03-12T17:27:34-05:00*%
%TF.ProjectId,ADC_Board,4144435f-426f-4617-9264-2e6b69636164,rev?*%
%TF.SameCoordinates,Original*%
%TF.FileFunction,Soldermask,Bot*%
%TF.FilePolarity,Negative*%
%FSLAX46Y46*%
G04 Gerber Fmt 4.6, Leading zero omitted, Abs format (unit mm)*
G04 Created by KiCad (PCBNEW 8.0.5) date 2025-03-12 17:27:34*
%MOMM*%
%LPD*%
G01*
G04 APERTURE LIST*
G04 Aperture macros list*
%AMRoundRect*
0 Rectangle with rounded corners*
0 $1 Rounding radius*
0 $2 $3 $4 $5 $6 $7 $8 $9 X,Y pos of 4 corners*
0 Add a 4 corners polygon primitive as box body*
4,1,4,$2,$3,$4,$5,$6,$7,$8,$9,$2,$3,0*
0 Add four circle primitives for the rounded corners*
1,1,$1+$1,$2,$3*
1,1,$1+$1,$4,$5*
1,1,$1+$1,$6,$7*
1,1,$1+$1,$8,$9*
0 Add four rect primitives between the rounded corners*
20,1,$1+$1,$2,$3,$4,$5,0*
20,1,$1+$1,$4,$5,$6,$7,0*
20,1,$1+$1,$6,$7,$8,$9,0*
20,1,$1+$1,$8,$9,$2,$3,0*%
G04 Aperture macros list end*
%ADD10C,4.000000*%
%ADD11C,3.048000*%
%ADD12C,2.780000*%
%ADD13R,1.524000X1.524000*%
%ADD14C,1.524000*%
%ADD15RoundRect,0.250000X0.625000X-0.400000X0.625000X0.400000X-0.625000X0.400000X-0.625000X-0.400000X0*%
%ADD16R,0.850900X0.304800*%
%ADD17RoundRect,0.250000X-0.250000X-0.475000X0.250000X-0.475000X0.250000X0.475000X-0.250000X0.475000X0*%
%ADD18RoundRect,0.243750X-0.456250X0.243750X-0.456250X-0.243750X0.456250X-0.243750X0.456250X0.243750X0*%
%ADD19C,0.600000*%
G04 APERTURE END LIST*
D10*
%TO.C,J5*%
X181000000Y-95500000D03*
%TD*%
D11*
%TO.C,H1*%
X150000000Y-57000000D03*
%TD*%
D10*
%TO.C,J4*%
X153950000Y-84500000D03*
%TD*%
D12*
%TO.C,F2*%
X163800000Y-84960000D03*
X167200000Y-84960000D03*
X163800000Y-75040000D03*
X167200000Y-75040000D03*
%TD*%
%TO.C,F1*%
X167200000Y-57540000D03*
X163800000Y-57540000D03*
X167200000Y-67460000D03*
X163800000Y-67460000D03*
%TD*%
D11*
%TO.C,H3*%
X150000000Y-102000000D03*
%TD*%
D10*
%TO.C,J1*%
X154000000Y-70000000D03*
%TD*%
%TO.C,J2*%
X165500000Y-96000000D03*
%TD*%
D13*
%TO.C,U5*%
X213260000Y-63480000D03*
D14*
X213260000Y-66020000D03*
X213260000Y-68560000D03*
X213260000Y-71100000D03*
X213260000Y-73640000D03*
X213260000Y-76180000D03*
X213260000Y-78720000D03*
X213260000Y-81260000D03*
X213260000Y-83800000D03*
X213260000Y-86340000D03*
X213260000Y-88880000D03*
X213260000Y-91420000D03*
X213260000Y-93960000D03*
X213260000Y-96500000D03*
X213260000Y-99040000D03*
X228500000Y-99040000D03*
X228500000Y-96500000D03*
X228500000Y-93960000D03*
X228500000Y-91420000D03*
X228500000Y-88880000D03*
X228500000Y-86340000D03*
X228500000Y-83800000D03*
X228500000Y-81260000D03*
X228500000Y-78720000D03*
X228500000Y-76180000D03*
X228500000Y-73640000D03*
X228500000Y-71100000D03*
X228500000Y-68560000D03*
X228500000Y-66020000D03*
X228500000Y-63480000D03*
%TD*%
D11*
%TO.C,H2*%
X235000000Y-57000000D03*
%TD*%
%TO.C,H4*%
X235000000Y-102000000D03*
%TD*%
D15*
%TO.C,R4*%
X170600000Y-80550000D03*
X170600000Y-77450000D03*
%TD*%
D16*
%TO.C,U2*%
X176424450Y-79864886D03*
X176424450Y-79214900D03*
X176424450Y-78564914D03*
X178672350Y-78564901D03*
X178672350Y-79864899D03*
%TD*%
D15*
%TO.C,R1*%
X171400000Y-73550000D03*
X171400000Y-70450000D03*
%TD*%
D17*
%TO.C,C2*%
X177414100Y-75611700D03*
X179314100Y-75611700D03*
%TD*%
%TO.C,C3*%
X177550000Y-82000000D03*
X179450000Y-82000000D03*
%TD*%
D16*
%TO.C,U1*%
X176376050Y-73649986D03*
X176376050Y-73000000D03*
X176376050Y-72350014D03*
X178623950Y-72350001D03*
X178623950Y-73649999D03*
%TD*%
D18*
%TO.C,D2*%
X180364100Y-71674200D03*
X180364100Y-73549200D03*
%TD*%
D15*
%TO.C,R2*%
X174000000Y-73550000D03*
X174000000Y-70450000D03*
%TD*%
D18*
%TO.C,D3*%
X180500000Y-78062500D03*
X180500000Y-79937500D03*
%TD*%
D15*
%TO.C,R5*%
X174500000Y-80550000D03*
X174500000Y-77450000D03*
%TD*%
D19*
X174000000Y-70400000D03*
X190500000Y-82500000D03*
X175299999Y-68000000D03*
X175450598Y-73000000D03*
X186500000Y-79500000D03*
X178014100Y-73840521D03*
X174500000Y-56500000D03*
X177000000Y-69500000D03*
X180584009Y-75138518D03*
X179500000Y-56500000D03*
X181500000Y-78500000D03*
X195500000Y-100000000D03*
X191000000Y-100000000D03*
X193500000Y-76000000D03*
X194000000Y-74500000D03*
X191500000Y-74725001D03*
X194000000Y-79000000D03*
X192500000Y-76000000D03*
X194102787Y-78102787D03*
X189000000Y-74050000D03*
X194000000Y-80000000D03*
X209500000Y-78500000D03*
X211500000Y-78000000D03*
X211056129Y-75784345D03*
X208000000Y-79505000D03*
M02*
