M48
; DRILL file {KiCad 8.0.5} date 2025-03-25T16:54:30-0500
; FORMAT={-:-/ absolute / inch / decimal}
; #@! TF.CreationDate,2025-03-25T16:54:30-05:00
; #@! TF.GenerationSoftware,Kicad,Pcbnew,8.0.5
; #@! TF.FileFunction,Plated,1,2,PTH
FMAT,2
INCH
; #@! TA.AperFunction,Plated,PTH,ViaDrill
T1C0.0118
; #@! TA.AperFunction,Plated,PTH,ComponentDrill
T2C0.0394
; #@! TA.AperFunction,Plated,PTH,ComponentDrill
T3C0.0402
; #@! TA.AperFunction,Plated,PTH,ComponentDrill
T4C0.0701
; #@! TA.AperFunction,Plated,PTH,ComponentDrill
T5C0.0787
%
G90
G05
T1
X6.1063Y-4.1024
X6.1614Y-4.1024
X6.1732Y-1.9961
X6.2165Y-4.1024
X6.2283Y-1.9961
X6.2756Y-4.1024
X6.2835Y-1.9961
X6.3346Y-4.1024
X6.3425Y-1.9961
X6.4016Y-1.9961
X6.4646Y-1.9961
X6.5197Y-1.9961
X6.5748Y-1.9961
X6.6339Y-1.9961
X6.6929Y-1.9961
X6.7047Y-2.5512
X6.7283Y-4.1024
X6.7402Y-2.2283
X6.7559Y-1.9961
X6.7638Y-2.5512
X6.7835Y-4.1024
X6.811Y-1.9961
X6.8228Y-2.5512
X6.8386Y-4.1024
X6.8661Y-1.9961
X6.878Y-2.5512
X6.8789Y-2.7103
X6.8976Y-2.2283
X6.8976Y-4.1024
X6.9075Y-2.874
X6.9252Y-1.9961
X6.9567Y-3.0354
X6.9685Y-2.7362
X7.0084Y-2.9071
X7.1096Y-2.9582
X7.1417Y-2.0118
X7.1457Y-3.0906
X7.1654Y-3.5197
X7.189Y-3.1299
X7.189Y-3.1772
X7.2874Y-2.378
X7.3425Y-3.1299
X7.4016Y-4.1024
X7.4409Y-2.9154
X7.4567Y-4.1024
X7.5Y-3.248
X7.5039Y-2.9409
X7.5118Y-1.9961
X7.5157Y-4.1024
X7.5197Y-3.937
X7.5709Y-1.9961
X7.5748Y-4.1024
X7.5787Y-2.9921
X7.6181Y-2.9921
X7.6348Y-3.0443
X7.6378Y-2.9331
X7.6378Y-3.1102
X7.6378Y-3.1496
X7.6969Y-3.937
X7.8071Y-3.063
X7.8346Y-3.1024
X7.9528Y-3.8937
X8.0079Y-3.8937
X8.0669Y-3.8937
X8.126Y-3.8937
X8.185Y-3.8937
X8.189Y-3.1301
X8.248Y-3.0906
X8.3093Y-2.9836
X8.3268Y-3.0709
X8.3346Y-1.9803
X8.3898Y-1.9803
X8.4488Y-1.9803
X8.5079Y-1.9803
X8.5669Y-1.9803
X8.6299Y-1.9803
X8.685Y-1.9803
X8.7441Y-1.9803
X8.8031Y-1.9803
X8.8622Y-1.9803
T2
X7.752Y-2.0063
X7.752Y-2.1063
X7.752Y-2.2063
X7.752Y-2.3063
X7.752Y-2.4063
X7.752Y-2.5063
X7.752Y-2.6063
X7.752Y-2.7063
X8.063Y-2.026
X8.063Y-2.126
X8.063Y-2.226
X8.063Y-2.326
X8.063Y-2.426
X8.063Y-2.526
X8.063Y-2.626
X8.063Y-2.726
T3
X8.3961Y-2.4992
X8.3961Y-2.5992
X8.3961Y-2.6992
X8.3961Y-2.7992
X8.3961Y-2.8992
X8.3961Y-2.9992
X8.3961Y-3.0992
X8.3961Y-3.1992
X8.3961Y-3.2992
X8.3961Y-3.3992
X8.3961Y-3.4992
X8.3961Y-3.5992
X8.3961Y-3.6992
X8.3961Y-3.7992
X8.3961Y-3.8992
X8.9961Y-2.4992
X8.9961Y-2.5992
X8.9961Y-2.6992
X8.9961Y-2.7992
X8.9961Y-2.8992
X8.9961Y-2.9992
X8.9961Y-3.0992
X8.9961Y-3.1992
X8.9961Y-3.2992
X8.9961Y-3.3992
X8.9961Y-3.4992
X8.9961Y-3.5992
X8.9961Y-3.6992
X8.9961Y-3.7992
X8.9961Y-3.8992
T4
X6.4488Y-2.2654
X6.4488Y-2.6559
X6.4488Y-2.9543
X6.4488Y-3.3449
X6.5827Y-2.2654
X6.5827Y-2.6559
X6.5827Y-2.9543
X6.5827Y-3.3449
T5
X6.061Y-3.3268
X6.063Y-2.7559
X6.5157Y-3.7795
X7.126Y-3.7598
M30
