%TF.GenerationSoftware,KiCad,Pcbnew,8.0.5*%
%TF.CreationDate,2025-03-12T17:27:34-05:00*%
%TF.ProjectId,ADC_Board,4144435f-426f-4617-9264-2e6b69636164,rev?*%
%TF.SameCoordinates,Original*%
%TF.FileFunction,Legend,Top*%
%TF.FilePolarity,Positive*%
%FSLAX46Y46*%
G04 Gerber Fmt 4.6, Leading zero omitted, Abs format (unit mm)*
G04 Created by KiCad (PCBNEW 8.0.5) date 2025-03-12 17:27:34*
%MOMM*%
%LPD*%
G01*
G04 APERTURE LIST*
%ADD10C,0.100000*%
%ADD11C,0.150000*%
%ADD12C,0.120000*%
%ADD13C,0.152400*%
%ADD14C,0.000000*%
%ADD15C,0.200000*%
%ADD16C,0.500000*%
%ADD17C,0.250000*%
G04 APERTURE END LIST*
D10*
X152056265Y-62386704D02*
X152532455Y-62386704D01*
X151961027Y-62672419D02*
X152294360Y-61672419D01*
X152294360Y-61672419D02*
X152627693Y-62672419D01*
X153532455Y-62672419D02*
X153199122Y-62196228D01*
X152961027Y-62672419D02*
X152961027Y-61672419D01*
X152961027Y-61672419D02*
X153341979Y-61672419D01*
X153341979Y-61672419D02*
X153437217Y-61720038D01*
X153437217Y-61720038D02*
X153484836Y-61767657D01*
X153484836Y-61767657D02*
X153532455Y-61862895D01*
X153532455Y-61862895D02*
X153532455Y-62005752D01*
X153532455Y-62005752D02*
X153484836Y-62100990D01*
X153484836Y-62100990D02*
X153437217Y-62148609D01*
X153437217Y-62148609D02*
X153341979Y-62196228D01*
X153341979Y-62196228D02*
X152961027Y-62196228D01*
X154532455Y-62672419D02*
X154199122Y-62196228D01*
X153961027Y-62672419D02*
X153961027Y-61672419D01*
X153961027Y-61672419D02*
X154341979Y-61672419D01*
X154341979Y-61672419D02*
X154437217Y-61720038D01*
X154437217Y-61720038D02*
X154484836Y-61767657D01*
X154484836Y-61767657D02*
X154532455Y-61862895D01*
X154532455Y-61862895D02*
X154532455Y-62005752D01*
X154532455Y-62005752D02*
X154484836Y-62100990D01*
X154484836Y-62100990D02*
X154437217Y-62148609D01*
X154437217Y-62148609D02*
X154341979Y-62196228D01*
X154341979Y-62196228D02*
X153961027Y-62196228D01*
X154913408Y-62386704D02*
X155389598Y-62386704D01*
X154818170Y-62672419D02*
X155151503Y-61672419D01*
X155151503Y-61672419D02*
X155484836Y-62672419D01*
X156008646Y-62196228D02*
X156008646Y-62672419D01*
X155675313Y-61672419D02*
X156008646Y-62196228D01*
X156008646Y-62196228D02*
X156341979Y-61672419D01*
X156675313Y-62291466D02*
X157437218Y-62291466D01*
X157056265Y-62672419D02*
X157056265Y-61910514D01*
X151856265Y-92586704D02*
X152332455Y-92586704D01*
X151761027Y-92872419D02*
X152094360Y-91872419D01*
X152094360Y-91872419D02*
X152427693Y-92872419D01*
X153332455Y-92872419D02*
X152999122Y-92396228D01*
X152761027Y-92872419D02*
X152761027Y-91872419D01*
X152761027Y-91872419D02*
X153141979Y-91872419D01*
X153141979Y-91872419D02*
X153237217Y-91920038D01*
X153237217Y-91920038D02*
X153284836Y-91967657D01*
X153284836Y-91967657D02*
X153332455Y-92062895D01*
X153332455Y-92062895D02*
X153332455Y-92205752D01*
X153332455Y-92205752D02*
X153284836Y-92300990D01*
X153284836Y-92300990D02*
X153237217Y-92348609D01*
X153237217Y-92348609D02*
X153141979Y-92396228D01*
X153141979Y-92396228D02*
X152761027Y-92396228D01*
X154332455Y-92872419D02*
X153999122Y-92396228D01*
X153761027Y-92872419D02*
X153761027Y-91872419D01*
X153761027Y-91872419D02*
X154141979Y-91872419D01*
X154141979Y-91872419D02*
X154237217Y-91920038D01*
X154237217Y-91920038D02*
X154284836Y-91967657D01*
X154284836Y-91967657D02*
X154332455Y-92062895D01*
X154332455Y-92062895D02*
X154332455Y-92205752D01*
X154332455Y-92205752D02*
X154284836Y-92300990D01*
X154284836Y-92300990D02*
X154237217Y-92348609D01*
X154237217Y-92348609D02*
X154141979Y-92396228D01*
X154141979Y-92396228D02*
X153761027Y-92396228D01*
X154713408Y-92586704D02*
X155189598Y-92586704D01*
X154618170Y-92872419D02*
X154951503Y-91872419D01*
X154951503Y-91872419D02*
X155284836Y-92872419D01*
X155808646Y-92396228D02*
X155808646Y-92872419D01*
X155475313Y-91872419D02*
X155808646Y-92396228D01*
X155808646Y-92396228D02*
X156141979Y-91872419D01*
X156475313Y-92491466D02*
X157237218Y-92491466D01*
X163037217Y-103948609D02*
X163180074Y-103996228D01*
X163180074Y-103996228D02*
X163227693Y-104043847D01*
X163227693Y-104043847D02*
X163275312Y-104139085D01*
X163275312Y-104139085D02*
X163275312Y-104281942D01*
X163275312Y-104281942D02*
X163227693Y-104377180D01*
X163227693Y-104377180D02*
X163180074Y-104424800D01*
X163180074Y-104424800D02*
X163084836Y-104472419D01*
X163084836Y-104472419D02*
X162703884Y-104472419D01*
X162703884Y-104472419D02*
X162703884Y-103472419D01*
X162703884Y-103472419D02*
X163037217Y-103472419D01*
X163037217Y-103472419D02*
X163132455Y-103520038D01*
X163132455Y-103520038D02*
X163180074Y-103567657D01*
X163180074Y-103567657D02*
X163227693Y-103662895D01*
X163227693Y-103662895D02*
X163227693Y-103758133D01*
X163227693Y-103758133D02*
X163180074Y-103853371D01*
X163180074Y-103853371D02*
X163132455Y-103900990D01*
X163132455Y-103900990D02*
X163037217Y-103948609D01*
X163037217Y-103948609D02*
X162703884Y-103948609D01*
X163656265Y-104186704D02*
X164132455Y-104186704D01*
X163561027Y-104472419D02*
X163894360Y-103472419D01*
X163894360Y-103472419D02*
X164227693Y-104472419D01*
X164418170Y-103472419D02*
X164989598Y-103472419D01*
X164703884Y-104472419D02*
X164703884Y-103472419D01*
X165180075Y-103472419D02*
X165751503Y-103472419D01*
X165465789Y-104472419D02*
X165465789Y-103472419D01*
X166084837Y-103948609D02*
X166418170Y-103948609D01*
X166561027Y-104472419D02*
X166084837Y-104472419D01*
X166084837Y-104472419D02*
X166084837Y-103472419D01*
X166084837Y-103472419D02*
X166561027Y-103472419D01*
X167561027Y-104472419D02*
X167227694Y-103996228D01*
X166989599Y-104472419D02*
X166989599Y-103472419D01*
X166989599Y-103472419D02*
X167370551Y-103472419D01*
X167370551Y-103472419D02*
X167465789Y-103520038D01*
X167465789Y-103520038D02*
X167513408Y-103567657D01*
X167513408Y-103567657D02*
X167561027Y-103662895D01*
X167561027Y-103662895D02*
X167561027Y-103805752D01*
X167561027Y-103805752D02*
X167513408Y-103900990D01*
X167513408Y-103900990D02*
X167465789Y-103948609D01*
X167465789Y-103948609D02*
X167370551Y-103996228D01*
X167370551Y-103996228D02*
X166989599Y-103996228D01*
X168180075Y-103996228D02*
X168180075Y-104472419D01*
X167846742Y-103472419D02*
X168180075Y-103996228D01*
X168180075Y-103996228D02*
X168513408Y-103472419D01*
X168846742Y-104091466D02*
X169608647Y-104091466D01*
X169227694Y-104472419D02*
X169227694Y-103710514D01*
X178837217Y-103548609D02*
X178980074Y-103596228D01*
X178980074Y-103596228D02*
X179027693Y-103643847D01*
X179027693Y-103643847D02*
X179075312Y-103739085D01*
X179075312Y-103739085D02*
X179075312Y-103881942D01*
X179075312Y-103881942D02*
X179027693Y-103977180D01*
X179027693Y-103977180D02*
X178980074Y-104024800D01*
X178980074Y-104024800D02*
X178884836Y-104072419D01*
X178884836Y-104072419D02*
X178503884Y-104072419D01*
X178503884Y-104072419D02*
X178503884Y-103072419D01*
X178503884Y-103072419D02*
X178837217Y-103072419D01*
X178837217Y-103072419D02*
X178932455Y-103120038D01*
X178932455Y-103120038D02*
X178980074Y-103167657D01*
X178980074Y-103167657D02*
X179027693Y-103262895D01*
X179027693Y-103262895D02*
X179027693Y-103358133D01*
X179027693Y-103358133D02*
X178980074Y-103453371D01*
X178980074Y-103453371D02*
X178932455Y-103500990D01*
X178932455Y-103500990D02*
X178837217Y-103548609D01*
X178837217Y-103548609D02*
X178503884Y-103548609D01*
X179456265Y-103786704D02*
X179932455Y-103786704D01*
X179361027Y-104072419D02*
X179694360Y-103072419D01*
X179694360Y-103072419D02*
X180027693Y-104072419D01*
X180218170Y-103072419D02*
X180789598Y-103072419D01*
X180503884Y-104072419D02*
X180503884Y-103072419D01*
X180980075Y-103072419D02*
X181551503Y-103072419D01*
X181265789Y-104072419D02*
X181265789Y-103072419D01*
X181884837Y-103548609D02*
X182218170Y-103548609D01*
X182361027Y-104072419D02*
X181884837Y-104072419D01*
X181884837Y-104072419D02*
X181884837Y-103072419D01*
X181884837Y-103072419D02*
X182361027Y-103072419D01*
X183361027Y-104072419D02*
X183027694Y-103596228D01*
X182789599Y-104072419D02*
X182789599Y-103072419D01*
X182789599Y-103072419D02*
X183170551Y-103072419D01*
X183170551Y-103072419D02*
X183265789Y-103120038D01*
X183265789Y-103120038D02*
X183313408Y-103167657D01*
X183313408Y-103167657D02*
X183361027Y-103262895D01*
X183361027Y-103262895D02*
X183361027Y-103405752D01*
X183361027Y-103405752D02*
X183313408Y-103500990D01*
X183313408Y-103500990D02*
X183265789Y-103548609D01*
X183265789Y-103548609D02*
X183170551Y-103596228D01*
X183170551Y-103596228D02*
X182789599Y-103596228D01*
X183980075Y-103596228D02*
X183980075Y-104072419D01*
X183646742Y-103072419D02*
X183980075Y-103596228D01*
X183980075Y-103596228D02*
X184313408Y-103072419D01*
X184646742Y-103691466D02*
X185408647Y-103691466D01*
D11*
X180466666Y-99454819D02*
X180466666Y-100169104D01*
X180466666Y-100169104D02*
X180419047Y-100311961D01*
X180419047Y-100311961D02*
X180323809Y-100407200D01*
X180323809Y-100407200D02*
X180180952Y-100454819D01*
X180180952Y-100454819D02*
X180085714Y-100454819D01*
X181419047Y-99454819D02*
X180942857Y-99454819D01*
X180942857Y-99454819D02*
X180895238Y-99931009D01*
X180895238Y-99931009D02*
X180942857Y-99883390D01*
X180942857Y-99883390D02*
X181038095Y-99835771D01*
X181038095Y-99835771D02*
X181276190Y-99835771D01*
X181276190Y-99835771D02*
X181371428Y-99883390D01*
X181371428Y-99883390D02*
X181419047Y-99931009D01*
X181419047Y-99931009D02*
X181466666Y-100026247D01*
X181466666Y-100026247D02*
X181466666Y-100264342D01*
X181466666Y-100264342D02*
X181419047Y-100359580D01*
X181419047Y-100359580D02*
X181371428Y-100407200D01*
X181371428Y-100407200D02*
X181276190Y-100454819D01*
X181276190Y-100454819D02*
X181038095Y-100454819D01*
X181038095Y-100454819D02*
X180942857Y-100407200D01*
X180942857Y-100407200D02*
X180895238Y-100359580D01*
X172179580Y-68166666D02*
X172227200Y-68214285D01*
X172227200Y-68214285D02*
X172274819Y-68357142D01*
X172274819Y-68357142D02*
X172274819Y-68452380D01*
X172274819Y-68452380D02*
X172227200Y-68595237D01*
X172227200Y-68595237D02*
X172131961Y-68690475D01*
X172131961Y-68690475D02*
X172036723Y-68738094D01*
X172036723Y-68738094D02*
X171846247Y-68785713D01*
X171846247Y-68785713D02*
X171703390Y-68785713D01*
X171703390Y-68785713D02*
X171512914Y-68738094D01*
X171512914Y-68738094D02*
X171417676Y-68690475D01*
X171417676Y-68690475D02*
X171322438Y-68595237D01*
X171322438Y-68595237D02*
X171274819Y-68452380D01*
X171274819Y-68452380D02*
X171274819Y-68357142D01*
X171274819Y-68357142D02*
X171322438Y-68214285D01*
X171322438Y-68214285D02*
X171370057Y-68166666D01*
X172274819Y-67214285D02*
X172274819Y-67785713D01*
X172274819Y-67499999D02*
X171274819Y-67499999D01*
X171274819Y-67499999D02*
X171417676Y-67595237D01*
X171417676Y-67595237D02*
X171512914Y-67690475D01*
X171512914Y-67690475D02*
X171560533Y-67785713D01*
X180633333Y-71159580D02*
X180585714Y-71207200D01*
X180585714Y-71207200D02*
X180442857Y-71254819D01*
X180442857Y-71254819D02*
X180347619Y-71254819D01*
X180347619Y-71254819D02*
X180204762Y-71207200D01*
X180204762Y-71207200D02*
X180109524Y-71111961D01*
X180109524Y-71111961D02*
X180061905Y-71016723D01*
X180061905Y-71016723D02*
X180014286Y-70826247D01*
X180014286Y-70826247D02*
X180014286Y-70683390D01*
X180014286Y-70683390D02*
X180061905Y-70492914D01*
X180061905Y-70492914D02*
X180109524Y-70397676D01*
X180109524Y-70397676D02*
X180204762Y-70302438D01*
X180204762Y-70302438D02*
X180347619Y-70254819D01*
X180347619Y-70254819D02*
X180442857Y-70254819D01*
X180442857Y-70254819D02*
X180585714Y-70302438D01*
X180585714Y-70302438D02*
X180633333Y-70350057D01*
X181109524Y-71254819D02*
X181300000Y-71254819D01*
X181300000Y-71254819D02*
X181395238Y-71207200D01*
X181395238Y-71207200D02*
X181442857Y-71159580D01*
X181442857Y-71159580D02*
X181538095Y-71016723D01*
X181538095Y-71016723D02*
X181585714Y-70826247D01*
X181585714Y-70826247D02*
X181585714Y-70445295D01*
X181585714Y-70445295D02*
X181538095Y-70350057D01*
X181538095Y-70350057D02*
X181490476Y-70302438D01*
X181490476Y-70302438D02*
X181395238Y-70254819D01*
X181395238Y-70254819D02*
X181204762Y-70254819D01*
X181204762Y-70254819D02*
X181109524Y-70302438D01*
X181109524Y-70302438D02*
X181061905Y-70350057D01*
X181061905Y-70350057D02*
X181014286Y-70445295D01*
X181014286Y-70445295D02*
X181014286Y-70683390D01*
X181014286Y-70683390D02*
X181061905Y-70778628D01*
X181061905Y-70778628D02*
X181109524Y-70826247D01*
X181109524Y-70826247D02*
X181204762Y-70873866D01*
X181204762Y-70873866D02*
X181395238Y-70873866D01*
X181395238Y-70873866D02*
X181490476Y-70826247D01*
X181490476Y-70826247D02*
X181538095Y-70778628D01*
X181538095Y-70778628D02*
X181585714Y-70683390D01*
X171234819Y-80966666D02*
X170758628Y-81299999D01*
X171234819Y-81538094D02*
X170234819Y-81538094D01*
X170234819Y-81538094D02*
X170234819Y-81157142D01*
X170234819Y-81157142D02*
X170282438Y-81061904D01*
X170282438Y-81061904D02*
X170330057Y-81014285D01*
X170330057Y-81014285D02*
X170425295Y-80966666D01*
X170425295Y-80966666D02*
X170568152Y-80966666D01*
X170568152Y-80966666D02*
X170663390Y-81014285D01*
X170663390Y-81014285D02*
X170711009Y-81061904D01*
X170711009Y-81061904D02*
X170758628Y-81157142D01*
X170758628Y-81157142D02*
X170758628Y-81538094D01*
X170234819Y-80109523D02*
X170234819Y-80299999D01*
X170234819Y-80299999D02*
X170282438Y-80395237D01*
X170282438Y-80395237D02*
X170330057Y-80442856D01*
X170330057Y-80442856D02*
X170472914Y-80538094D01*
X170472914Y-80538094D02*
X170663390Y-80585713D01*
X170663390Y-80585713D02*
X171044342Y-80585713D01*
X171044342Y-80585713D02*
X171139580Y-80538094D01*
X171139580Y-80538094D02*
X171187200Y-80490475D01*
X171187200Y-80490475D02*
X171234819Y-80395237D01*
X171234819Y-80395237D02*
X171234819Y-80204761D01*
X171234819Y-80204761D02*
X171187200Y-80109523D01*
X171187200Y-80109523D02*
X171139580Y-80061904D01*
X171139580Y-80061904D02*
X171044342Y-80014285D01*
X171044342Y-80014285D02*
X170806247Y-80014285D01*
X170806247Y-80014285D02*
X170711009Y-80061904D01*
X170711009Y-80061904D02*
X170663390Y-80109523D01*
X170663390Y-80109523D02*
X170615771Y-80204761D01*
X170615771Y-80204761D02*
X170615771Y-80395237D01*
X170615771Y-80395237D02*
X170663390Y-80490475D01*
X170663390Y-80490475D02*
X170711009Y-80538094D01*
X170711009Y-80538094D02*
X170806247Y-80585713D01*
X184738095Y-57454819D02*
X184738095Y-58264342D01*
X184738095Y-58264342D02*
X184785714Y-58359580D01*
X184785714Y-58359580D02*
X184833333Y-58407200D01*
X184833333Y-58407200D02*
X184928571Y-58454819D01*
X184928571Y-58454819D02*
X185119047Y-58454819D01*
X185119047Y-58454819D02*
X185214285Y-58407200D01*
X185214285Y-58407200D02*
X185261904Y-58359580D01*
X185261904Y-58359580D02*
X185309523Y-58264342D01*
X185309523Y-58264342D02*
X185309523Y-57454819D01*
X186214285Y-57454819D02*
X186023809Y-57454819D01*
X186023809Y-57454819D02*
X185928571Y-57502438D01*
X185928571Y-57502438D02*
X185880952Y-57550057D01*
X185880952Y-57550057D02*
X185785714Y-57692914D01*
X185785714Y-57692914D02*
X185738095Y-57883390D01*
X185738095Y-57883390D02*
X185738095Y-58264342D01*
X185738095Y-58264342D02*
X185785714Y-58359580D01*
X185785714Y-58359580D02*
X185833333Y-58407200D01*
X185833333Y-58407200D02*
X185928571Y-58454819D01*
X185928571Y-58454819D02*
X186119047Y-58454819D01*
X186119047Y-58454819D02*
X186214285Y-58407200D01*
X186214285Y-58407200D02*
X186261904Y-58359580D01*
X186261904Y-58359580D02*
X186309523Y-58264342D01*
X186309523Y-58264342D02*
X186309523Y-58026247D01*
X186309523Y-58026247D02*
X186261904Y-57931009D01*
X186261904Y-57931009D02*
X186214285Y-57883390D01*
X186214285Y-57883390D02*
X186119047Y-57835771D01*
X186119047Y-57835771D02*
X185928571Y-57835771D01*
X185928571Y-57835771D02*
X185833333Y-57883390D01*
X185833333Y-57883390D02*
X185785714Y-57931009D01*
X185785714Y-57931009D02*
X185738095Y-58026247D01*
X184023810Y-75454819D02*
X184023810Y-74454819D01*
X185071428Y-75359580D02*
X185023809Y-75407200D01*
X185023809Y-75407200D02*
X184880952Y-75454819D01*
X184880952Y-75454819D02*
X184785714Y-75454819D01*
X184785714Y-75454819D02*
X184642857Y-75407200D01*
X184642857Y-75407200D02*
X184547619Y-75311961D01*
X184547619Y-75311961D02*
X184500000Y-75216723D01*
X184500000Y-75216723D02*
X184452381Y-75026247D01*
X184452381Y-75026247D02*
X184452381Y-74883390D01*
X184452381Y-74883390D02*
X184500000Y-74692914D01*
X184500000Y-74692914D02*
X184547619Y-74597676D01*
X184547619Y-74597676D02*
X184642857Y-74502438D01*
X184642857Y-74502438D02*
X184785714Y-74454819D01*
X184785714Y-74454819D02*
X184880952Y-74454819D01*
X184880952Y-74454819D02*
X185023809Y-74502438D01*
X185023809Y-74502438D02*
X185071428Y-74550057D01*
X185452381Y-74550057D02*
X185500000Y-74502438D01*
X185500000Y-74502438D02*
X185595238Y-74454819D01*
X185595238Y-74454819D02*
X185833333Y-74454819D01*
X185833333Y-74454819D02*
X185928571Y-74502438D01*
X185928571Y-74502438D02*
X185976190Y-74550057D01*
X185976190Y-74550057D02*
X186023809Y-74645295D01*
X186023809Y-74645295D02*
X186023809Y-74740533D01*
X186023809Y-74740533D02*
X185976190Y-74883390D01*
X185976190Y-74883390D02*
X185404762Y-75454819D01*
X185404762Y-75454819D02*
X186023809Y-75454819D01*
X182800000Y-70454819D02*
X182800000Y-70692914D01*
X182561905Y-70597676D02*
X182800000Y-70692914D01*
X182800000Y-70692914D02*
X183038095Y-70597676D01*
X182657143Y-70883390D02*
X182800000Y-70692914D01*
X182800000Y-70692914D02*
X182942857Y-70883390D01*
X177438095Y-65854819D02*
X177438095Y-66664342D01*
X177438095Y-66664342D02*
X177485714Y-66759580D01*
X177485714Y-66759580D02*
X177533333Y-66807200D01*
X177533333Y-66807200D02*
X177628571Y-66854819D01*
X177628571Y-66854819D02*
X177819047Y-66854819D01*
X177819047Y-66854819D02*
X177914285Y-66807200D01*
X177914285Y-66807200D02*
X177961904Y-66759580D01*
X177961904Y-66759580D02*
X178009523Y-66664342D01*
X178009523Y-66664342D02*
X178009523Y-65854819D01*
X178390476Y-65854819D02*
X179009523Y-65854819D01*
X179009523Y-65854819D02*
X178676190Y-66235771D01*
X178676190Y-66235771D02*
X178819047Y-66235771D01*
X178819047Y-66235771D02*
X178914285Y-66283390D01*
X178914285Y-66283390D02*
X178961904Y-66331009D01*
X178961904Y-66331009D02*
X179009523Y-66426247D01*
X179009523Y-66426247D02*
X179009523Y-66664342D01*
X179009523Y-66664342D02*
X178961904Y-66759580D01*
X178961904Y-66759580D02*
X178914285Y-66807200D01*
X178914285Y-66807200D02*
X178819047Y-66854819D01*
X178819047Y-66854819D02*
X178533333Y-66854819D01*
X178533333Y-66854819D02*
X178438095Y-66807200D01*
X178438095Y-66807200D02*
X178390476Y-66759580D01*
X149238095Y-61264819D02*
X149238095Y-60264819D01*
X149238095Y-60741009D02*
X149809523Y-60741009D01*
X149809523Y-61264819D02*
X149809523Y-60264819D01*
X150809523Y-61264819D02*
X150238095Y-61264819D01*
X150523809Y-61264819D02*
X150523809Y-60264819D01*
X150523809Y-60264819D02*
X150428571Y-60407676D01*
X150428571Y-60407676D02*
X150333333Y-60502914D01*
X150333333Y-60502914D02*
X150238095Y-60550533D01*
X153666666Y-88254819D02*
X153666666Y-88969104D01*
X153666666Y-88969104D02*
X153619047Y-89111961D01*
X153619047Y-89111961D02*
X153523809Y-89207200D01*
X153523809Y-89207200D02*
X153380952Y-89254819D01*
X153380952Y-89254819D02*
X153285714Y-89254819D01*
X154571428Y-88588152D02*
X154571428Y-89254819D01*
X154333333Y-88207200D02*
X154095238Y-88921485D01*
X154095238Y-88921485D02*
X154714285Y-88921485D01*
X161061009Y-80333333D02*
X161061009Y-80666666D01*
X161584819Y-80666666D02*
X160584819Y-80666666D01*
X160584819Y-80666666D02*
X160584819Y-80190476D01*
X160680057Y-79857142D02*
X160632438Y-79809523D01*
X160632438Y-79809523D02*
X160584819Y-79714285D01*
X160584819Y-79714285D02*
X160584819Y-79476190D01*
X160584819Y-79476190D02*
X160632438Y-79380952D01*
X160632438Y-79380952D02*
X160680057Y-79333333D01*
X160680057Y-79333333D02*
X160775295Y-79285714D01*
X160775295Y-79285714D02*
X160870533Y-79285714D01*
X160870533Y-79285714D02*
X161013390Y-79333333D01*
X161013390Y-79333333D02*
X161584819Y-79904761D01*
X161584819Y-79904761D02*
X161584819Y-79285714D01*
X160731009Y-62733333D02*
X160731009Y-63066666D01*
X161254819Y-63066666D02*
X160254819Y-63066666D01*
X160254819Y-63066666D02*
X160254819Y-62590476D01*
X161254819Y-61685714D02*
X161254819Y-62257142D01*
X161254819Y-61971428D02*
X160254819Y-61971428D01*
X160254819Y-61971428D02*
X160397676Y-62066666D01*
X160397676Y-62066666D02*
X160492914Y-62161904D01*
X160492914Y-62161904D02*
X160540533Y-62257142D01*
X149438095Y-97854819D02*
X149438095Y-96854819D01*
X149438095Y-97331009D02*
X150009523Y-97331009D01*
X150009523Y-97854819D02*
X150009523Y-96854819D01*
X150390476Y-96854819D02*
X151009523Y-96854819D01*
X151009523Y-96854819D02*
X150676190Y-97235771D01*
X150676190Y-97235771D02*
X150819047Y-97235771D01*
X150819047Y-97235771D02*
X150914285Y-97283390D01*
X150914285Y-97283390D02*
X150961904Y-97331009D01*
X150961904Y-97331009D02*
X151009523Y-97426247D01*
X151009523Y-97426247D02*
X151009523Y-97664342D01*
X151009523Y-97664342D02*
X150961904Y-97759580D01*
X150961904Y-97759580D02*
X150914285Y-97807200D01*
X150914285Y-97807200D02*
X150819047Y-97854819D01*
X150819047Y-97854819D02*
X150533333Y-97854819D01*
X150533333Y-97854819D02*
X150438095Y-97807200D01*
X150438095Y-97807200D02*
X150390476Y-97759580D01*
X173238095Y-53554819D02*
X173809523Y-53554819D01*
X173523809Y-54554819D02*
X173523809Y-53554819D01*
X174142857Y-54554819D02*
X174142857Y-53554819D01*
X174142857Y-53554819D02*
X174523809Y-53554819D01*
X174523809Y-53554819D02*
X174619047Y-53602438D01*
X174619047Y-53602438D02*
X174666666Y-53650057D01*
X174666666Y-53650057D02*
X174714285Y-53745295D01*
X174714285Y-53745295D02*
X174714285Y-53888152D01*
X174714285Y-53888152D02*
X174666666Y-53983390D01*
X174666666Y-53983390D02*
X174619047Y-54031009D01*
X174619047Y-54031009D02*
X174523809Y-54078628D01*
X174523809Y-54078628D02*
X174142857Y-54078628D01*
X175619047Y-53554819D02*
X175142857Y-53554819D01*
X175142857Y-53554819D02*
X175095238Y-54031009D01*
X175095238Y-54031009D02*
X175142857Y-53983390D01*
X175142857Y-53983390D02*
X175238095Y-53935771D01*
X175238095Y-53935771D02*
X175476190Y-53935771D01*
X175476190Y-53935771D02*
X175571428Y-53983390D01*
X175571428Y-53983390D02*
X175619047Y-54031009D01*
X175619047Y-54031009D02*
X175666666Y-54126247D01*
X175666666Y-54126247D02*
X175666666Y-54364342D01*
X175666666Y-54364342D02*
X175619047Y-54459580D01*
X175619047Y-54459580D02*
X175571428Y-54507200D01*
X175571428Y-54507200D02*
X175476190Y-54554819D01*
X175476190Y-54554819D02*
X175238095Y-54554819D01*
X175238095Y-54554819D02*
X175142857Y-54507200D01*
X175142857Y-54507200D02*
X175095238Y-54459580D01*
X194324405Y-64304819D02*
X194324405Y-63304819D01*
X194324405Y-63304819D02*
X194562500Y-63304819D01*
X194562500Y-63304819D02*
X194705357Y-63352438D01*
X194705357Y-63352438D02*
X194800595Y-63447676D01*
X194800595Y-63447676D02*
X194848214Y-63542914D01*
X194848214Y-63542914D02*
X194895833Y-63733390D01*
X194895833Y-63733390D02*
X194895833Y-63876247D01*
X194895833Y-63876247D02*
X194848214Y-64066723D01*
X194848214Y-64066723D02*
X194800595Y-64161961D01*
X194800595Y-64161961D02*
X194705357Y-64257200D01*
X194705357Y-64257200D02*
X194562500Y-64304819D01*
X194562500Y-64304819D02*
X194324405Y-64304819D01*
X195800595Y-63304819D02*
X195324405Y-63304819D01*
X195324405Y-63304819D02*
X195276786Y-63781009D01*
X195276786Y-63781009D02*
X195324405Y-63733390D01*
X195324405Y-63733390D02*
X195419643Y-63685771D01*
X195419643Y-63685771D02*
X195657738Y-63685771D01*
X195657738Y-63685771D02*
X195752976Y-63733390D01*
X195752976Y-63733390D02*
X195800595Y-63781009D01*
X195800595Y-63781009D02*
X195848214Y-63876247D01*
X195848214Y-63876247D02*
X195848214Y-64114342D01*
X195848214Y-64114342D02*
X195800595Y-64209580D01*
X195800595Y-64209580D02*
X195752976Y-64257200D01*
X195752976Y-64257200D02*
X195657738Y-64304819D01*
X195657738Y-64304819D02*
X195419643Y-64304819D01*
X195419643Y-64304819D02*
X195324405Y-64257200D01*
X195324405Y-64257200D02*
X195276786Y-64209580D01*
X210359580Y-89666666D02*
X210407200Y-89714285D01*
X210407200Y-89714285D02*
X210454819Y-89857142D01*
X210454819Y-89857142D02*
X210454819Y-89952380D01*
X210454819Y-89952380D02*
X210407200Y-90095237D01*
X210407200Y-90095237D02*
X210311961Y-90190475D01*
X210311961Y-90190475D02*
X210216723Y-90238094D01*
X210216723Y-90238094D02*
X210026247Y-90285713D01*
X210026247Y-90285713D02*
X209883390Y-90285713D01*
X209883390Y-90285713D02*
X209692914Y-90238094D01*
X209692914Y-90238094D02*
X209597676Y-90190475D01*
X209597676Y-90190475D02*
X209502438Y-90095237D01*
X209502438Y-90095237D02*
X209454819Y-89952380D01*
X209454819Y-89952380D02*
X209454819Y-89857142D01*
X209454819Y-89857142D02*
X209502438Y-89714285D01*
X209502438Y-89714285D02*
X209550057Y-89666666D01*
X209454819Y-88809523D02*
X209454819Y-88999999D01*
X209454819Y-88999999D02*
X209502438Y-89095237D01*
X209502438Y-89095237D02*
X209550057Y-89142856D01*
X209550057Y-89142856D02*
X209692914Y-89238094D01*
X209692914Y-89238094D02*
X209883390Y-89285713D01*
X209883390Y-89285713D02*
X210264342Y-89285713D01*
X210264342Y-89285713D02*
X210359580Y-89238094D01*
X210359580Y-89238094D02*
X210407200Y-89190475D01*
X210407200Y-89190475D02*
X210454819Y-89095237D01*
X210454819Y-89095237D02*
X210454819Y-88904761D01*
X210454819Y-88904761D02*
X210407200Y-88809523D01*
X210407200Y-88809523D02*
X210359580Y-88761904D01*
X210359580Y-88761904D02*
X210264342Y-88714285D01*
X210264342Y-88714285D02*
X210026247Y-88714285D01*
X210026247Y-88714285D02*
X209931009Y-88761904D01*
X209931009Y-88761904D02*
X209883390Y-88809523D01*
X209883390Y-88809523D02*
X209835771Y-88904761D01*
X209835771Y-88904761D02*
X209835771Y-89095237D01*
X209835771Y-89095237D02*
X209883390Y-89190475D01*
X209883390Y-89190475D02*
X209931009Y-89238094D01*
X209931009Y-89238094D02*
X210026247Y-89285713D01*
X153666666Y-73654819D02*
X153666666Y-74369104D01*
X153666666Y-74369104D02*
X153619047Y-74511961D01*
X153619047Y-74511961D02*
X153523809Y-74607200D01*
X153523809Y-74607200D02*
X153380952Y-74654819D01*
X153380952Y-74654819D02*
X153285714Y-74654819D01*
X154666666Y-74654819D02*
X154095238Y-74654819D01*
X154380952Y-74654819D02*
X154380952Y-73654819D01*
X154380952Y-73654819D02*
X154285714Y-73797676D01*
X154285714Y-73797676D02*
X154190476Y-73892914D01*
X154190476Y-73892914D02*
X154095238Y-73940533D01*
X191359580Y-85042857D02*
X191407200Y-85090476D01*
X191407200Y-85090476D02*
X191454819Y-85233333D01*
X191454819Y-85233333D02*
X191454819Y-85328571D01*
X191454819Y-85328571D02*
X191407200Y-85471428D01*
X191407200Y-85471428D02*
X191311961Y-85566666D01*
X191311961Y-85566666D02*
X191216723Y-85614285D01*
X191216723Y-85614285D02*
X191026247Y-85661904D01*
X191026247Y-85661904D02*
X190883390Y-85661904D01*
X190883390Y-85661904D02*
X190692914Y-85614285D01*
X190692914Y-85614285D02*
X190597676Y-85566666D01*
X190597676Y-85566666D02*
X190502438Y-85471428D01*
X190502438Y-85471428D02*
X190454819Y-85328571D01*
X190454819Y-85328571D02*
X190454819Y-85233333D01*
X190454819Y-85233333D02*
X190502438Y-85090476D01*
X190502438Y-85090476D02*
X190550057Y-85042857D01*
X191454819Y-84090476D02*
X191454819Y-84661904D01*
X191454819Y-84376190D02*
X190454819Y-84376190D01*
X190454819Y-84376190D02*
X190597676Y-84471428D01*
X190597676Y-84471428D02*
X190692914Y-84566666D01*
X190692914Y-84566666D02*
X190740533Y-84661904D01*
X190550057Y-83709523D02*
X190502438Y-83661904D01*
X190502438Y-83661904D02*
X190454819Y-83566666D01*
X190454819Y-83566666D02*
X190454819Y-83328571D01*
X190454819Y-83328571D02*
X190502438Y-83233333D01*
X190502438Y-83233333D02*
X190550057Y-83185714D01*
X190550057Y-83185714D02*
X190645295Y-83138095D01*
X190645295Y-83138095D02*
X190740533Y-83138095D01*
X190740533Y-83138095D02*
X190883390Y-83185714D01*
X190883390Y-83185714D02*
X191454819Y-83757142D01*
X191454819Y-83757142D02*
X191454819Y-83138095D01*
X191679580Y-93216666D02*
X191727200Y-93264285D01*
X191727200Y-93264285D02*
X191774819Y-93407142D01*
X191774819Y-93407142D02*
X191774819Y-93502380D01*
X191774819Y-93502380D02*
X191727200Y-93645237D01*
X191727200Y-93645237D02*
X191631961Y-93740475D01*
X191631961Y-93740475D02*
X191536723Y-93788094D01*
X191536723Y-93788094D02*
X191346247Y-93835713D01*
X191346247Y-93835713D02*
X191203390Y-93835713D01*
X191203390Y-93835713D02*
X191012914Y-93788094D01*
X191012914Y-93788094D02*
X190917676Y-93740475D01*
X190917676Y-93740475D02*
X190822438Y-93645237D01*
X190822438Y-93645237D02*
X190774819Y-93502380D01*
X190774819Y-93502380D02*
X190774819Y-93407142D01*
X190774819Y-93407142D02*
X190822438Y-93264285D01*
X190822438Y-93264285D02*
X190870057Y-93216666D01*
X191203390Y-92645237D02*
X191155771Y-92740475D01*
X191155771Y-92740475D02*
X191108152Y-92788094D01*
X191108152Y-92788094D02*
X191012914Y-92835713D01*
X191012914Y-92835713D02*
X190965295Y-92835713D01*
X190965295Y-92835713D02*
X190870057Y-92788094D01*
X190870057Y-92788094D02*
X190822438Y-92740475D01*
X190822438Y-92740475D02*
X190774819Y-92645237D01*
X190774819Y-92645237D02*
X190774819Y-92454761D01*
X190774819Y-92454761D02*
X190822438Y-92359523D01*
X190822438Y-92359523D02*
X190870057Y-92311904D01*
X190870057Y-92311904D02*
X190965295Y-92264285D01*
X190965295Y-92264285D02*
X191012914Y-92264285D01*
X191012914Y-92264285D02*
X191108152Y-92311904D01*
X191108152Y-92311904D02*
X191155771Y-92359523D01*
X191155771Y-92359523D02*
X191203390Y-92454761D01*
X191203390Y-92454761D02*
X191203390Y-92645237D01*
X191203390Y-92645237D02*
X191251009Y-92740475D01*
X191251009Y-92740475D02*
X191298628Y-92788094D01*
X191298628Y-92788094D02*
X191393866Y-92835713D01*
X191393866Y-92835713D02*
X191584342Y-92835713D01*
X191584342Y-92835713D02*
X191679580Y-92788094D01*
X191679580Y-92788094D02*
X191727200Y-92740475D01*
X191727200Y-92740475D02*
X191774819Y-92645237D01*
X191774819Y-92645237D02*
X191774819Y-92454761D01*
X191774819Y-92454761D02*
X191727200Y-92359523D01*
X191727200Y-92359523D02*
X191679580Y-92311904D01*
X191679580Y-92311904D02*
X191584342Y-92264285D01*
X191584342Y-92264285D02*
X191393866Y-92264285D01*
X191393866Y-92264285D02*
X191298628Y-92311904D01*
X191298628Y-92311904D02*
X191251009Y-92359523D01*
X191251009Y-92359523D02*
X191203390Y-92454761D01*
X194061905Y-102654819D02*
X194633333Y-102654819D01*
X194347619Y-103654819D02*
X194347619Y-102654819D01*
X194966667Y-103654819D02*
X194966667Y-102654819D01*
X194966667Y-102654819D02*
X195347619Y-102654819D01*
X195347619Y-102654819D02*
X195442857Y-102702438D01*
X195442857Y-102702438D02*
X195490476Y-102750057D01*
X195490476Y-102750057D02*
X195538095Y-102845295D01*
X195538095Y-102845295D02*
X195538095Y-102988152D01*
X195538095Y-102988152D02*
X195490476Y-103083390D01*
X195490476Y-103083390D02*
X195442857Y-103131009D01*
X195442857Y-103131009D02*
X195347619Y-103178628D01*
X195347619Y-103178628D02*
X194966667Y-103178628D01*
X196490476Y-103654819D02*
X195919048Y-103654819D01*
X196204762Y-103654819D02*
X196204762Y-102654819D01*
X196204762Y-102654819D02*
X196109524Y-102797676D01*
X196109524Y-102797676D02*
X196014286Y-102892914D01*
X196014286Y-102892914D02*
X195919048Y-102940533D01*
X197442857Y-103654819D02*
X196871429Y-103654819D01*
X197157143Y-103654819D02*
X197157143Y-102654819D01*
X197157143Y-102654819D02*
X197061905Y-102797676D01*
X197061905Y-102797676D02*
X196966667Y-102892914D01*
X196966667Y-102892914D02*
X196871429Y-102940533D01*
X201476189Y-88545180D02*
X201476189Y-89545180D01*
X200428571Y-88640419D02*
X200476190Y-88592800D01*
X200476190Y-88592800D02*
X200619047Y-88545180D01*
X200619047Y-88545180D02*
X200714285Y-88545180D01*
X200714285Y-88545180D02*
X200857142Y-88592800D01*
X200857142Y-88592800D02*
X200952380Y-88688038D01*
X200952380Y-88688038D02*
X200999999Y-88783276D01*
X200999999Y-88783276D02*
X201047618Y-88973752D01*
X201047618Y-88973752D02*
X201047618Y-89116609D01*
X201047618Y-89116609D02*
X200999999Y-89307085D01*
X200999999Y-89307085D02*
X200952380Y-89402323D01*
X200952380Y-89402323D02*
X200857142Y-89497561D01*
X200857142Y-89497561D02*
X200714285Y-89545180D01*
X200714285Y-89545180D02*
X200619047Y-89545180D01*
X200619047Y-89545180D02*
X200476190Y-89497561D01*
X200476190Y-89497561D02*
X200428571Y-89449942D01*
X199476190Y-88545180D02*
X200047618Y-88545180D01*
X199761904Y-88545180D02*
X199761904Y-89545180D01*
X199761904Y-89545180D02*
X199857142Y-89402323D01*
X199857142Y-89402323D02*
X199952380Y-89307085D01*
X199952380Y-89307085D02*
X200047618Y-89259466D01*
X207199999Y-93945180D02*
X207199999Y-93707085D01*
X207438094Y-93802323D02*
X207199999Y-93707085D01*
X207199999Y-93707085D02*
X206961904Y-93802323D01*
X207342856Y-93516609D02*
X207199999Y-93707085D01*
X207199999Y-93707085D02*
X207057142Y-93516609D01*
X207200000Y-92854819D02*
X207200000Y-93092914D01*
X206961905Y-92997676D02*
X207200000Y-93092914D01*
X207200000Y-93092914D02*
X207438095Y-92997676D01*
X207057143Y-93283390D02*
X207200000Y-93092914D01*
X207200000Y-93092914D02*
X207342857Y-93283390D01*
X183091642Y-65898480D02*
X183044023Y-65946100D01*
X183044023Y-65946100D02*
X182901166Y-65993719D01*
X182901166Y-65993719D02*
X182805928Y-65993719D01*
X182805928Y-65993719D02*
X182663071Y-65946100D01*
X182663071Y-65946100D02*
X182567833Y-65850861D01*
X182567833Y-65850861D02*
X182520214Y-65755623D01*
X182520214Y-65755623D02*
X182472595Y-65565147D01*
X182472595Y-65565147D02*
X182472595Y-65422290D01*
X182472595Y-65422290D02*
X182520214Y-65231814D01*
X182520214Y-65231814D02*
X182567833Y-65136576D01*
X182567833Y-65136576D02*
X182663071Y-65041338D01*
X182663071Y-65041338D02*
X182805928Y-64993719D01*
X182805928Y-64993719D02*
X182901166Y-64993719D01*
X182901166Y-64993719D02*
X183044023Y-65041338D01*
X183044023Y-65041338D02*
X183091642Y-65088957D01*
X184044023Y-65993719D02*
X183472595Y-65993719D01*
X183758309Y-65993719D02*
X183758309Y-64993719D01*
X183758309Y-64993719D02*
X183663071Y-65136576D01*
X183663071Y-65136576D02*
X183567833Y-65231814D01*
X183567833Y-65231814D02*
X183472595Y-65279433D01*
X184948785Y-64993719D02*
X184472595Y-64993719D01*
X184472595Y-64993719D02*
X184424976Y-65469909D01*
X184424976Y-65469909D02*
X184472595Y-65422290D01*
X184472595Y-65422290D02*
X184567833Y-65374671D01*
X184567833Y-65374671D02*
X184805928Y-65374671D01*
X184805928Y-65374671D02*
X184901166Y-65422290D01*
X184901166Y-65422290D02*
X184948785Y-65469909D01*
X184948785Y-65469909D02*
X184996404Y-65565147D01*
X184996404Y-65565147D02*
X184996404Y-65803242D01*
X184996404Y-65803242D02*
X184948785Y-65898480D01*
X184948785Y-65898480D02*
X184901166Y-65946100D01*
X184901166Y-65946100D02*
X184805928Y-65993719D01*
X184805928Y-65993719D02*
X184567833Y-65993719D01*
X184567833Y-65993719D02*
X184472595Y-65946100D01*
X184472595Y-65946100D02*
X184424976Y-65898480D01*
X190959580Y-89766666D02*
X191007200Y-89814285D01*
X191007200Y-89814285D02*
X191054819Y-89957142D01*
X191054819Y-89957142D02*
X191054819Y-90052380D01*
X191054819Y-90052380D02*
X191007200Y-90195237D01*
X191007200Y-90195237D02*
X190911961Y-90290475D01*
X190911961Y-90290475D02*
X190816723Y-90338094D01*
X190816723Y-90338094D02*
X190626247Y-90385713D01*
X190626247Y-90385713D02*
X190483390Y-90385713D01*
X190483390Y-90385713D02*
X190292914Y-90338094D01*
X190292914Y-90338094D02*
X190197676Y-90290475D01*
X190197676Y-90290475D02*
X190102438Y-90195237D01*
X190102438Y-90195237D02*
X190054819Y-90052380D01*
X190054819Y-90052380D02*
X190054819Y-89957142D01*
X190054819Y-89957142D02*
X190102438Y-89814285D01*
X190102438Y-89814285D02*
X190150057Y-89766666D01*
X190054819Y-89433332D02*
X190054819Y-88766666D01*
X190054819Y-88766666D02*
X191054819Y-89195237D01*
X178238095Y-53554819D02*
X178809523Y-53554819D01*
X178523809Y-54554819D02*
X178523809Y-53554819D01*
X179142857Y-54554819D02*
X179142857Y-53554819D01*
X179142857Y-53554819D02*
X179523809Y-53554819D01*
X179523809Y-53554819D02*
X179619047Y-53602438D01*
X179619047Y-53602438D02*
X179666666Y-53650057D01*
X179666666Y-53650057D02*
X179714285Y-53745295D01*
X179714285Y-53745295D02*
X179714285Y-53888152D01*
X179714285Y-53888152D02*
X179666666Y-53983390D01*
X179666666Y-53983390D02*
X179619047Y-54031009D01*
X179619047Y-54031009D02*
X179523809Y-54078628D01*
X179523809Y-54078628D02*
X179142857Y-54078628D01*
X180571428Y-53554819D02*
X180380952Y-53554819D01*
X180380952Y-53554819D02*
X180285714Y-53602438D01*
X180285714Y-53602438D02*
X180238095Y-53650057D01*
X180238095Y-53650057D02*
X180142857Y-53792914D01*
X180142857Y-53792914D02*
X180095238Y-53983390D01*
X180095238Y-53983390D02*
X180095238Y-54364342D01*
X180095238Y-54364342D02*
X180142857Y-54459580D01*
X180142857Y-54459580D02*
X180190476Y-54507200D01*
X180190476Y-54507200D02*
X180285714Y-54554819D01*
X180285714Y-54554819D02*
X180476190Y-54554819D01*
X180476190Y-54554819D02*
X180571428Y-54507200D01*
X180571428Y-54507200D02*
X180619047Y-54459580D01*
X180619047Y-54459580D02*
X180666666Y-54364342D01*
X180666666Y-54364342D02*
X180666666Y-54126247D01*
X180666666Y-54126247D02*
X180619047Y-54031009D01*
X180619047Y-54031009D02*
X180571428Y-53983390D01*
X180571428Y-53983390D02*
X180476190Y-53935771D01*
X180476190Y-53935771D02*
X180285714Y-53935771D01*
X180285714Y-53935771D02*
X180190476Y-53983390D01*
X180190476Y-53983390D02*
X180142857Y-54031009D01*
X180142857Y-54031009D02*
X180095238Y-54126247D01*
X194718333Y-60089819D02*
X194385000Y-59613628D01*
X194146905Y-60089819D02*
X194146905Y-59089819D01*
X194146905Y-59089819D02*
X194527857Y-59089819D01*
X194527857Y-59089819D02*
X194623095Y-59137438D01*
X194623095Y-59137438D02*
X194670714Y-59185057D01*
X194670714Y-59185057D02*
X194718333Y-59280295D01*
X194718333Y-59280295D02*
X194718333Y-59423152D01*
X194718333Y-59423152D02*
X194670714Y-59518390D01*
X194670714Y-59518390D02*
X194623095Y-59566009D01*
X194623095Y-59566009D02*
X194527857Y-59613628D01*
X194527857Y-59613628D02*
X194146905Y-59613628D01*
X195051667Y-59089819D02*
X195718333Y-59089819D01*
X195718333Y-59089819D02*
X195289762Y-60089819D01*
X186591642Y-65898480D02*
X186544023Y-65946100D01*
X186544023Y-65946100D02*
X186401166Y-65993719D01*
X186401166Y-65993719D02*
X186305928Y-65993719D01*
X186305928Y-65993719D02*
X186163071Y-65946100D01*
X186163071Y-65946100D02*
X186067833Y-65850861D01*
X186067833Y-65850861D02*
X186020214Y-65755623D01*
X186020214Y-65755623D02*
X185972595Y-65565147D01*
X185972595Y-65565147D02*
X185972595Y-65422290D01*
X185972595Y-65422290D02*
X186020214Y-65231814D01*
X186020214Y-65231814D02*
X186067833Y-65136576D01*
X186067833Y-65136576D02*
X186163071Y-65041338D01*
X186163071Y-65041338D02*
X186305928Y-64993719D01*
X186305928Y-64993719D02*
X186401166Y-64993719D01*
X186401166Y-64993719D02*
X186544023Y-65041338D01*
X186544023Y-65041338D02*
X186591642Y-65088957D01*
X187544023Y-65993719D02*
X186972595Y-65993719D01*
X187258309Y-65993719D02*
X187258309Y-64993719D01*
X187258309Y-64993719D02*
X187163071Y-65136576D01*
X187163071Y-65136576D02*
X187067833Y-65231814D01*
X187067833Y-65231814D02*
X186972595Y-65279433D01*
X187877357Y-64993719D02*
X188496404Y-64993719D01*
X188496404Y-64993719D02*
X188163071Y-65374671D01*
X188163071Y-65374671D02*
X188305928Y-65374671D01*
X188305928Y-65374671D02*
X188401166Y-65422290D01*
X188401166Y-65422290D02*
X188448785Y-65469909D01*
X188448785Y-65469909D02*
X188496404Y-65565147D01*
X188496404Y-65565147D02*
X188496404Y-65803242D01*
X188496404Y-65803242D02*
X188448785Y-65898480D01*
X188448785Y-65898480D02*
X188401166Y-65946100D01*
X188401166Y-65946100D02*
X188305928Y-65993719D01*
X188305928Y-65993719D02*
X188020214Y-65993719D01*
X188020214Y-65993719D02*
X187924976Y-65946100D01*
X187924976Y-65946100D02*
X187877357Y-65898480D01*
X186357142Y-68359580D02*
X186309523Y-68407200D01*
X186309523Y-68407200D02*
X186166666Y-68454819D01*
X186166666Y-68454819D02*
X186071428Y-68454819D01*
X186071428Y-68454819D02*
X185928571Y-68407200D01*
X185928571Y-68407200D02*
X185833333Y-68311961D01*
X185833333Y-68311961D02*
X185785714Y-68216723D01*
X185785714Y-68216723D02*
X185738095Y-68026247D01*
X185738095Y-68026247D02*
X185738095Y-67883390D01*
X185738095Y-67883390D02*
X185785714Y-67692914D01*
X185785714Y-67692914D02*
X185833333Y-67597676D01*
X185833333Y-67597676D02*
X185928571Y-67502438D01*
X185928571Y-67502438D02*
X186071428Y-67454819D01*
X186071428Y-67454819D02*
X186166666Y-67454819D01*
X186166666Y-67454819D02*
X186309523Y-67502438D01*
X186309523Y-67502438D02*
X186357142Y-67550057D01*
X187309523Y-68454819D02*
X186738095Y-68454819D01*
X187023809Y-68454819D02*
X187023809Y-67454819D01*
X187023809Y-67454819D02*
X186928571Y-67597676D01*
X186928571Y-67597676D02*
X186833333Y-67692914D01*
X186833333Y-67692914D02*
X186738095Y-67740533D01*
X187928571Y-67454819D02*
X188023809Y-67454819D01*
X188023809Y-67454819D02*
X188119047Y-67502438D01*
X188119047Y-67502438D02*
X188166666Y-67550057D01*
X188166666Y-67550057D02*
X188214285Y-67645295D01*
X188214285Y-67645295D02*
X188261904Y-67835771D01*
X188261904Y-67835771D02*
X188261904Y-68073866D01*
X188261904Y-68073866D02*
X188214285Y-68264342D01*
X188214285Y-68264342D02*
X188166666Y-68359580D01*
X188166666Y-68359580D02*
X188119047Y-68407200D01*
X188119047Y-68407200D02*
X188023809Y-68454819D01*
X188023809Y-68454819D02*
X187928571Y-68454819D01*
X187928571Y-68454819D02*
X187833333Y-68407200D01*
X187833333Y-68407200D02*
X187785714Y-68359580D01*
X187785714Y-68359580D02*
X187738095Y-68264342D01*
X187738095Y-68264342D02*
X187690476Y-68073866D01*
X187690476Y-68073866D02*
X187690476Y-67835771D01*
X187690476Y-67835771D02*
X187738095Y-67645295D01*
X187738095Y-67645295D02*
X187785714Y-67550057D01*
X187785714Y-67550057D02*
X187833333Y-67502438D01*
X187833333Y-67502438D02*
X187928571Y-67454819D01*
X175238095Y-80454819D02*
X175238095Y-81264342D01*
X175238095Y-81264342D02*
X175285714Y-81359580D01*
X175285714Y-81359580D02*
X175333333Y-81407200D01*
X175333333Y-81407200D02*
X175428571Y-81454819D01*
X175428571Y-81454819D02*
X175619047Y-81454819D01*
X175619047Y-81454819D02*
X175714285Y-81407200D01*
X175714285Y-81407200D02*
X175761904Y-81359580D01*
X175761904Y-81359580D02*
X175809523Y-81264342D01*
X175809523Y-81264342D02*
X175809523Y-80454819D01*
X176714285Y-80788152D02*
X176714285Y-81454819D01*
X176476190Y-80407200D02*
X176238095Y-81121485D01*
X176238095Y-81121485D02*
X176857142Y-81121485D01*
X165266666Y-99054819D02*
X165266666Y-99769104D01*
X165266666Y-99769104D02*
X165219047Y-99911961D01*
X165219047Y-99911961D02*
X165123809Y-100007200D01*
X165123809Y-100007200D02*
X164980952Y-100054819D01*
X164980952Y-100054819D02*
X164885714Y-100054819D01*
X165695238Y-99150057D02*
X165742857Y-99102438D01*
X165742857Y-99102438D02*
X165838095Y-99054819D01*
X165838095Y-99054819D02*
X166076190Y-99054819D01*
X166076190Y-99054819D02*
X166171428Y-99102438D01*
X166171428Y-99102438D02*
X166219047Y-99150057D01*
X166219047Y-99150057D02*
X166266666Y-99245295D01*
X166266666Y-99245295D02*
X166266666Y-99340533D01*
X166266666Y-99340533D02*
X166219047Y-99483390D01*
X166219047Y-99483390D02*
X165647619Y-100054819D01*
X165647619Y-100054819D02*
X166266666Y-100054819D01*
X206333333Y-97759580D02*
X206285714Y-97807200D01*
X206285714Y-97807200D02*
X206142857Y-97854819D01*
X206142857Y-97854819D02*
X206047619Y-97854819D01*
X206047619Y-97854819D02*
X205904762Y-97807200D01*
X205904762Y-97807200D02*
X205809524Y-97711961D01*
X205809524Y-97711961D02*
X205761905Y-97616723D01*
X205761905Y-97616723D02*
X205714286Y-97426247D01*
X205714286Y-97426247D02*
X205714286Y-97283390D01*
X205714286Y-97283390D02*
X205761905Y-97092914D01*
X205761905Y-97092914D02*
X205809524Y-96997676D01*
X205809524Y-96997676D02*
X205904762Y-96902438D01*
X205904762Y-96902438D02*
X206047619Y-96854819D01*
X206047619Y-96854819D02*
X206142857Y-96854819D01*
X206142857Y-96854819D02*
X206285714Y-96902438D01*
X206285714Y-96902438D02*
X206333333Y-96950057D01*
X207238095Y-96854819D02*
X206761905Y-96854819D01*
X206761905Y-96854819D02*
X206714286Y-97331009D01*
X206714286Y-97331009D02*
X206761905Y-97283390D01*
X206761905Y-97283390D02*
X206857143Y-97235771D01*
X206857143Y-97235771D02*
X207095238Y-97235771D01*
X207095238Y-97235771D02*
X207190476Y-97283390D01*
X207190476Y-97283390D02*
X207238095Y-97331009D01*
X207238095Y-97331009D02*
X207285714Y-97426247D01*
X207285714Y-97426247D02*
X207285714Y-97664342D01*
X207285714Y-97664342D02*
X207238095Y-97759580D01*
X207238095Y-97759580D02*
X207190476Y-97807200D01*
X207190476Y-97807200D02*
X207095238Y-97854819D01*
X207095238Y-97854819D02*
X206857143Y-97854819D01*
X206857143Y-97854819D02*
X206761905Y-97807200D01*
X206761905Y-97807200D02*
X206714286Y-97759580D01*
X181274821Y-69793093D02*
X180274821Y-69793093D01*
X180274821Y-69793093D02*
X180274821Y-69554998D01*
X180274821Y-69554998D02*
X180322440Y-69412141D01*
X180322440Y-69412141D02*
X180417678Y-69316903D01*
X180417678Y-69316903D02*
X180512916Y-69269284D01*
X180512916Y-69269284D02*
X180703392Y-69221665D01*
X180703392Y-69221665D02*
X180846249Y-69221665D01*
X180846249Y-69221665D02*
X181036725Y-69269284D01*
X181036725Y-69269284D02*
X181131963Y-69316903D01*
X181131963Y-69316903D02*
X181227202Y-69412141D01*
X181227202Y-69412141D02*
X181274821Y-69554998D01*
X181274821Y-69554998D02*
X181274821Y-69793093D01*
X181274821Y-68269284D02*
X181274821Y-68840712D01*
X181274821Y-68554998D02*
X180274821Y-68554998D01*
X180274821Y-68554998D02*
X180417678Y-68650236D01*
X180417678Y-68650236D02*
X180512916Y-68745474D01*
X180512916Y-68745474D02*
X180560535Y-68840712D01*
X207957142Y-84359580D02*
X207909523Y-84407200D01*
X207909523Y-84407200D02*
X207766666Y-84454819D01*
X207766666Y-84454819D02*
X207671428Y-84454819D01*
X207671428Y-84454819D02*
X207528571Y-84407200D01*
X207528571Y-84407200D02*
X207433333Y-84311961D01*
X207433333Y-84311961D02*
X207385714Y-84216723D01*
X207385714Y-84216723D02*
X207338095Y-84026247D01*
X207338095Y-84026247D02*
X207338095Y-83883390D01*
X207338095Y-83883390D02*
X207385714Y-83692914D01*
X207385714Y-83692914D02*
X207433333Y-83597676D01*
X207433333Y-83597676D02*
X207528571Y-83502438D01*
X207528571Y-83502438D02*
X207671428Y-83454819D01*
X207671428Y-83454819D02*
X207766666Y-83454819D01*
X207766666Y-83454819D02*
X207909523Y-83502438D01*
X207909523Y-83502438D02*
X207957142Y-83550057D01*
X208909523Y-84454819D02*
X208338095Y-84454819D01*
X208623809Y-84454819D02*
X208623809Y-83454819D01*
X208623809Y-83454819D02*
X208528571Y-83597676D01*
X208528571Y-83597676D02*
X208433333Y-83692914D01*
X208433333Y-83692914D02*
X208338095Y-83740533D01*
X209766666Y-83788152D02*
X209766666Y-84454819D01*
X209528571Y-83407200D02*
X209290476Y-84121485D01*
X209290476Y-84121485D02*
X209909523Y-84121485D01*
X219618095Y-56584819D02*
X219618095Y-57394342D01*
X219618095Y-57394342D02*
X219665714Y-57489580D01*
X219665714Y-57489580D02*
X219713333Y-57537200D01*
X219713333Y-57537200D02*
X219808571Y-57584819D01*
X219808571Y-57584819D02*
X219999047Y-57584819D01*
X219999047Y-57584819D02*
X220094285Y-57537200D01*
X220094285Y-57537200D02*
X220141904Y-57489580D01*
X220141904Y-57489580D02*
X220189523Y-57394342D01*
X220189523Y-57394342D02*
X220189523Y-56584819D01*
X220618095Y-57537200D02*
X220760952Y-57584819D01*
X220760952Y-57584819D02*
X220999047Y-57584819D01*
X220999047Y-57584819D02*
X221094285Y-57537200D01*
X221094285Y-57537200D02*
X221141904Y-57489580D01*
X221141904Y-57489580D02*
X221189523Y-57394342D01*
X221189523Y-57394342D02*
X221189523Y-57299104D01*
X221189523Y-57299104D02*
X221141904Y-57203866D01*
X221141904Y-57203866D02*
X221094285Y-57156247D01*
X221094285Y-57156247D02*
X220999047Y-57108628D01*
X220999047Y-57108628D02*
X220808571Y-57061009D01*
X220808571Y-57061009D02*
X220713333Y-57013390D01*
X220713333Y-57013390D02*
X220665714Y-56965771D01*
X220665714Y-56965771D02*
X220618095Y-56870533D01*
X220618095Y-56870533D02*
X220618095Y-56775295D01*
X220618095Y-56775295D02*
X220665714Y-56680057D01*
X220665714Y-56680057D02*
X220713333Y-56632438D01*
X220713333Y-56632438D02*
X220808571Y-56584819D01*
X220808571Y-56584819D02*
X221046666Y-56584819D01*
X221046666Y-56584819D02*
X221189523Y-56632438D01*
X221951428Y-57061009D02*
X222094285Y-57108628D01*
X222094285Y-57108628D02*
X222141904Y-57156247D01*
X222141904Y-57156247D02*
X222189523Y-57251485D01*
X222189523Y-57251485D02*
X222189523Y-57394342D01*
X222189523Y-57394342D02*
X222141904Y-57489580D01*
X222141904Y-57489580D02*
X222094285Y-57537200D01*
X222094285Y-57537200D02*
X221999047Y-57584819D01*
X221999047Y-57584819D02*
X221618095Y-57584819D01*
X221618095Y-57584819D02*
X221618095Y-56584819D01*
X221618095Y-56584819D02*
X221951428Y-56584819D01*
X221951428Y-56584819D02*
X222046666Y-56632438D01*
X222046666Y-56632438D02*
X222094285Y-56680057D01*
X222094285Y-56680057D02*
X222141904Y-56775295D01*
X222141904Y-56775295D02*
X222141904Y-56870533D01*
X222141904Y-56870533D02*
X222094285Y-56965771D01*
X222094285Y-56965771D02*
X222046666Y-57013390D01*
X222046666Y-57013390D02*
X221951428Y-57061009D01*
X221951428Y-57061009D02*
X221618095Y-57061009D01*
X221334819Y-86783809D02*
X220334819Y-86783809D01*
X220334819Y-86783809D02*
X221334819Y-86212381D01*
X221334819Y-86212381D02*
X220334819Y-86212381D01*
X220668152Y-85307619D02*
X221334819Y-85307619D01*
X220668152Y-85736190D02*
X221191961Y-85736190D01*
X221191961Y-85736190D02*
X221287200Y-85688571D01*
X221287200Y-85688571D02*
X221334819Y-85593333D01*
X221334819Y-85593333D02*
X221334819Y-85450476D01*
X221334819Y-85450476D02*
X221287200Y-85355238D01*
X221287200Y-85355238D02*
X221239580Y-85307619D01*
X221287200Y-84402857D02*
X221334819Y-84498095D01*
X221334819Y-84498095D02*
X221334819Y-84688571D01*
X221334819Y-84688571D02*
X221287200Y-84783809D01*
X221287200Y-84783809D02*
X221239580Y-84831428D01*
X221239580Y-84831428D02*
X221144342Y-84879047D01*
X221144342Y-84879047D02*
X220858628Y-84879047D01*
X220858628Y-84879047D02*
X220763390Y-84831428D01*
X220763390Y-84831428D02*
X220715771Y-84783809D01*
X220715771Y-84783809D02*
X220668152Y-84688571D01*
X220668152Y-84688571D02*
X220668152Y-84498095D01*
X220668152Y-84498095D02*
X220715771Y-84402857D01*
X221334819Y-83831428D02*
X221287200Y-83926666D01*
X221287200Y-83926666D02*
X221191961Y-83974285D01*
X221191961Y-83974285D02*
X220334819Y-83974285D01*
X221287200Y-83069523D02*
X221334819Y-83164761D01*
X221334819Y-83164761D02*
X221334819Y-83355237D01*
X221334819Y-83355237D02*
X221287200Y-83450475D01*
X221287200Y-83450475D02*
X221191961Y-83498094D01*
X221191961Y-83498094D02*
X220811009Y-83498094D01*
X220811009Y-83498094D02*
X220715771Y-83450475D01*
X220715771Y-83450475D02*
X220668152Y-83355237D01*
X220668152Y-83355237D02*
X220668152Y-83164761D01*
X220668152Y-83164761D02*
X220715771Y-83069523D01*
X220715771Y-83069523D02*
X220811009Y-83021904D01*
X220811009Y-83021904D02*
X220906247Y-83021904D01*
X220906247Y-83021904D02*
X221001485Y-83498094D01*
X221334819Y-82450475D02*
X221287200Y-82545713D01*
X221287200Y-82545713D02*
X221239580Y-82593332D01*
X221239580Y-82593332D02*
X221144342Y-82640951D01*
X221144342Y-82640951D02*
X220858628Y-82640951D01*
X220858628Y-82640951D02*
X220763390Y-82593332D01*
X220763390Y-82593332D02*
X220715771Y-82545713D01*
X220715771Y-82545713D02*
X220668152Y-82450475D01*
X220668152Y-82450475D02*
X220668152Y-82307618D01*
X220668152Y-82307618D02*
X220715771Y-82212380D01*
X220715771Y-82212380D02*
X220763390Y-82164761D01*
X220763390Y-82164761D02*
X220858628Y-82117142D01*
X220858628Y-82117142D02*
X221144342Y-82117142D01*
X221144342Y-82117142D02*
X221239580Y-82164761D01*
X221239580Y-82164761D02*
X221287200Y-82212380D01*
X221287200Y-82212380D02*
X221334819Y-82307618D01*
X221334819Y-82307618D02*
X221334819Y-82450475D01*
X221334819Y-80450475D02*
X221334819Y-80926665D01*
X221334819Y-80926665D02*
X220334819Y-80926665D01*
X220668152Y-79688570D02*
X221334819Y-79688570D01*
X220287200Y-79926665D02*
X221001485Y-80164760D01*
X221001485Y-80164760D02*
X221001485Y-79545713D01*
X220334819Y-79259998D02*
X220334819Y-78640951D01*
X220334819Y-78640951D02*
X220715771Y-78974284D01*
X220715771Y-78974284D02*
X220715771Y-78831427D01*
X220715771Y-78831427D02*
X220763390Y-78736189D01*
X220763390Y-78736189D02*
X220811009Y-78688570D01*
X220811009Y-78688570D02*
X220906247Y-78640951D01*
X220906247Y-78640951D02*
X221144342Y-78640951D01*
X221144342Y-78640951D02*
X221239580Y-78688570D01*
X221239580Y-78688570D02*
X221287200Y-78736189D01*
X221287200Y-78736189D02*
X221334819Y-78831427D01*
X221334819Y-78831427D02*
X221334819Y-79117141D01*
X221334819Y-79117141D02*
X221287200Y-79212379D01*
X221287200Y-79212379D02*
X221239580Y-79259998D01*
X220430057Y-78259998D02*
X220382438Y-78212379D01*
X220382438Y-78212379D02*
X220334819Y-78117141D01*
X220334819Y-78117141D02*
X220334819Y-77879046D01*
X220334819Y-77879046D02*
X220382438Y-77783808D01*
X220382438Y-77783808D02*
X220430057Y-77736189D01*
X220430057Y-77736189D02*
X220525295Y-77688570D01*
X220525295Y-77688570D02*
X220620533Y-77688570D01*
X220620533Y-77688570D02*
X220763390Y-77736189D01*
X220763390Y-77736189D02*
X221334819Y-78307617D01*
X221334819Y-78307617D02*
X221334819Y-77688570D01*
X221334819Y-77259998D02*
X220334819Y-77259998D01*
X221334819Y-76688570D02*
X220763390Y-77117141D01*
X220334819Y-76688570D02*
X220906247Y-77259998D01*
X221239580Y-75688570D02*
X221287200Y-75736189D01*
X221287200Y-75736189D02*
X221334819Y-75879046D01*
X221334819Y-75879046D02*
X221334819Y-75974284D01*
X221334819Y-75974284D02*
X221287200Y-76117141D01*
X221287200Y-76117141D02*
X221191961Y-76212379D01*
X221191961Y-76212379D02*
X221096723Y-76259998D01*
X221096723Y-76259998D02*
X220906247Y-76307617D01*
X220906247Y-76307617D02*
X220763390Y-76307617D01*
X220763390Y-76307617D02*
X220572914Y-76259998D01*
X220572914Y-76259998D02*
X220477676Y-76212379D01*
X220477676Y-76212379D02*
X220382438Y-76117141D01*
X220382438Y-76117141D02*
X220334819Y-75974284D01*
X220334819Y-75974284D02*
X220334819Y-75879046D01*
X220334819Y-75879046D02*
X220382438Y-75736189D01*
X220382438Y-75736189D02*
X220430057Y-75688570D01*
X234238095Y-61264819D02*
X234238095Y-60264819D01*
X234238095Y-60741009D02*
X234809523Y-60741009D01*
X234809523Y-61264819D02*
X234809523Y-60264819D01*
X235238095Y-60360057D02*
X235285714Y-60312438D01*
X235285714Y-60312438D02*
X235380952Y-60264819D01*
X235380952Y-60264819D02*
X235619047Y-60264819D01*
X235619047Y-60264819D02*
X235714285Y-60312438D01*
X235714285Y-60312438D02*
X235761904Y-60360057D01*
X235761904Y-60360057D02*
X235809523Y-60455295D01*
X235809523Y-60455295D02*
X235809523Y-60550533D01*
X235809523Y-60550533D02*
X235761904Y-60693390D01*
X235761904Y-60693390D02*
X235190476Y-61264819D01*
X235190476Y-61264819D02*
X235809523Y-61264819D01*
X171633333Y-78559580D02*
X171585714Y-78607200D01*
X171585714Y-78607200D02*
X171442857Y-78654819D01*
X171442857Y-78654819D02*
X171347619Y-78654819D01*
X171347619Y-78654819D02*
X171204762Y-78607200D01*
X171204762Y-78607200D02*
X171109524Y-78511961D01*
X171109524Y-78511961D02*
X171061905Y-78416723D01*
X171061905Y-78416723D02*
X171014286Y-78226247D01*
X171014286Y-78226247D02*
X171014286Y-78083390D01*
X171014286Y-78083390D02*
X171061905Y-77892914D01*
X171061905Y-77892914D02*
X171109524Y-77797676D01*
X171109524Y-77797676D02*
X171204762Y-77702438D01*
X171204762Y-77702438D02*
X171347619Y-77654819D01*
X171347619Y-77654819D02*
X171442857Y-77654819D01*
X171442857Y-77654819D02*
X171585714Y-77702438D01*
X171585714Y-77702438D02*
X171633333Y-77750057D01*
X172490476Y-77988152D02*
X172490476Y-78654819D01*
X172252381Y-77607200D02*
X172014286Y-78321485D01*
X172014286Y-78321485D02*
X172633333Y-78321485D01*
X201476189Y-76545180D02*
X201476189Y-77545180D01*
X200428571Y-76640419D02*
X200476190Y-76592800D01*
X200476190Y-76592800D02*
X200619047Y-76545180D01*
X200619047Y-76545180D02*
X200714285Y-76545180D01*
X200714285Y-76545180D02*
X200857142Y-76592800D01*
X200857142Y-76592800D02*
X200952380Y-76688038D01*
X200952380Y-76688038D02*
X200999999Y-76783276D01*
X200999999Y-76783276D02*
X201047618Y-76973752D01*
X201047618Y-76973752D02*
X201047618Y-77116609D01*
X201047618Y-77116609D02*
X200999999Y-77307085D01*
X200999999Y-77307085D02*
X200952380Y-77402323D01*
X200952380Y-77402323D02*
X200857142Y-77497561D01*
X200857142Y-77497561D02*
X200714285Y-77545180D01*
X200714285Y-77545180D02*
X200619047Y-77545180D01*
X200619047Y-77545180D02*
X200476190Y-77497561D01*
X200476190Y-77497561D02*
X200428571Y-77449942D01*
X200095237Y-77545180D02*
X199428571Y-77545180D01*
X199428571Y-77545180D02*
X199857142Y-76545180D01*
X179939823Y-77820593D02*
X178939823Y-77820593D01*
X178939823Y-77820593D02*
X178939823Y-77582498D01*
X178939823Y-77582498D02*
X178987442Y-77439641D01*
X178987442Y-77439641D02*
X179082680Y-77344403D01*
X179082680Y-77344403D02*
X179177918Y-77296784D01*
X179177918Y-77296784D02*
X179368394Y-77249165D01*
X179368394Y-77249165D02*
X179511251Y-77249165D01*
X179511251Y-77249165D02*
X179701727Y-77296784D01*
X179701727Y-77296784D02*
X179796965Y-77344403D01*
X179796965Y-77344403D02*
X179892204Y-77439641D01*
X179892204Y-77439641D02*
X179939823Y-77582498D01*
X179939823Y-77582498D02*
X179939823Y-77820593D01*
X179273156Y-76392022D02*
X179939823Y-76392022D01*
X178892204Y-76630117D02*
X179606489Y-76868212D01*
X179606489Y-76868212D02*
X179606489Y-76249165D01*
X172034819Y-72566666D02*
X171558628Y-72899999D01*
X172034819Y-73138094D02*
X171034819Y-73138094D01*
X171034819Y-73138094D02*
X171034819Y-72757142D01*
X171034819Y-72757142D02*
X171082438Y-72661904D01*
X171082438Y-72661904D02*
X171130057Y-72614285D01*
X171130057Y-72614285D02*
X171225295Y-72566666D01*
X171225295Y-72566666D02*
X171368152Y-72566666D01*
X171368152Y-72566666D02*
X171463390Y-72614285D01*
X171463390Y-72614285D02*
X171511009Y-72661904D01*
X171511009Y-72661904D02*
X171558628Y-72757142D01*
X171558628Y-72757142D02*
X171558628Y-73138094D01*
X171034819Y-72233332D02*
X171034819Y-71614285D01*
X171034819Y-71614285D02*
X171415771Y-71947618D01*
X171415771Y-71947618D02*
X171415771Y-71804761D01*
X171415771Y-71804761D02*
X171463390Y-71709523D01*
X171463390Y-71709523D02*
X171511009Y-71661904D01*
X171511009Y-71661904D02*
X171606247Y-71614285D01*
X171606247Y-71614285D02*
X171844342Y-71614285D01*
X171844342Y-71614285D02*
X171939580Y-71661904D01*
X171939580Y-71661904D02*
X171987200Y-71709523D01*
X171987200Y-71709523D02*
X172034819Y-71804761D01*
X172034819Y-71804761D02*
X172034819Y-72090475D01*
X172034819Y-72090475D02*
X171987200Y-72185713D01*
X171987200Y-72185713D02*
X171939580Y-72233332D01*
X188261905Y-102454819D02*
X188833333Y-102454819D01*
X188547619Y-103454819D02*
X188547619Y-102454819D01*
X189166667Y-103454819D02*
X189166667Y-102454819D01*
X189166667Y-102454819D02*
X189547619Y-102454819D01*
X189547619Y-102454819D02*
X189642857Y-102502438D01*
X189642857Y-102502438D02*
X189690476Y-102550057D01*
X189690476Y-102550057D02*
X189738095Y-102645295D01*
X189738095Y-102645295D02*
X189738095Y-102788152D01*
X189738095Y-102788152D02*
X189690476Y-102883390D01*
X189690476Y-102883390D02*
X189642857Y-102931009D01*
X189642857Y-102931009D02*
X189547619Y-102978628D01*
X189547619Y-102978628D02*
X189166667Y-102978628D01*
X190690476Y-103454819D02*
X190119048Y-103454819D01*
X190404762Y-103454819D02*
X190404762Y-102454819D01*
X190404762Y-102454819D02*
X190309524Y-102597676D01*
X190309524Y-102597676D02*
X190214286Y-102692914D01*
X190214286Y-102692914D02*
X190119048Y-102740533D01*
X191071429Y-102550057D02*
X191119048Y-102502438D01*
X191119048Y-102502438D02*
X191214286Y-102454819D01*
X191214286Y-102454819D02*
X191452381Y-102454819D01*
X191452381Y-102454819D02*
X191547619Y-102502438D01*
X191547619Y-102502438D02*
X191595238Y-102550057D01*
X191595238Y-102550057D02*
X191642857Y-102645295D01*
X191642857Y-102645295D02*
X191642857Y-102740533D01*
X191642857Y-102740533D02*
X191595238Y-102883390D01*
X191595238Y-102883390D02*
X191023810Y-103454819D01*
X191023810Y-103454819D02*
X191642857Y-103454819D01*
X234438095Y-98054819D02*
X234438095Y-97054819D01*
X234438095Y-97531009D02*
X235009523Y-97531009D01*
X235009523Y-98054819D02*
X235009523Y-97054819D01*
X235914285Y-97388152D02*
X235914285Y-98054819D01*
X235676190Y-97007200D02*
X235438095Y-97721485D01*
X235438095Y-97721485D02*
X236057142Y-97721485D01*
X192539580Y-73142857D02*
X192587200Y-73190476D01*
X192587200Y-73190476D02*
X192634819Y-73333333D01*
X192634819Y-73333333D02*
X192634819Y-73428571D01*
X192634819Y-73428571D02*
X192587200Y-73571428D01*
X192587200Y-73571428D02*
X192491961Y-73666666D01*
X192491961Y-73666666D02*
X192396723Y-73714285D01*
X192396723Y-73714285D02*
X192206247Y-73761904D01*
X192206247Y-73761904D02*
X192063390Y-73761904D01*
X192063390Y-73761904D02*
X191872914Y-73714285D01*
X191872914Y-73714285D02*
X191777676Y-73666666D01*
X191777676Y-73666666D02*
X191682438Y-73571428D01*
X191682438Y-73571428D02*
X191634819Y-73428571D01*
X191634819Y-73428571D02*
X191634819Y-73333333D01*
X191634819Y-73333333D02*
X191682438Y-73190476D01*
X191682438Y-73190476D02*
X191730057Y-73142857D01*
X192634819Y-72190476D02*
X192634819Y-72761904D01*
X192634819Y-72476190D02*
X191634819Y-72476190D01*
X191634819Y-72476190D02*
X191777676Y-72571428D01*
X191777676Y-72571428D02*
X191872914Y-72666666D01*
X191872914Y-72666666D02*
X191920533Y-72761904D01*
X192634819Y-71238095D02*
X192634819Y-71809523D01*
X192634819Y-71523809D02*
X191634819Y-71523809D01*
X191634819Y-71523809D02*
X191777676Y-71619047D01*
X191777676Y-71619047D02*
X191872914Y-71714285D01*
X191872914Y-71714285D02*
X191920533Y-71809523D01*
D12*
%TO.C,C1*%
X172765000Y-68261252D02*
X172765000Y-67738748D01*
X174235000Y-68261252D02*
X174235000Y-67738748D01*
%TO.C,C9*%
X178765000Y-73238748D02*
X178765000Y-73761252D01*
X180235000Y-73238748D02*
X180235000Y-73761252D01*
%TO.C,R6*%
X171690000Y-81527064D02*
X171690000Y-80072936D01*
X173510000Y-81527064D02*
X173510000Y-80072936D01*
D13*
%TO.C,U6*%
X182147200Y-56145800D02*
X182147200Y-59854200D01*
X182147200Y-59854200D02*
X188852800Y-59854200D01*
X188852800Y-56145800D02*
X182147200Y-56145800D01*
X188852800Y-59854200D02*
X188852800Y-56145800D01*
%TO.C,IC2*%
X182817736Y-78429000D02*
X187182251Y-78429000D01*
X187182264Y-71571000D02*
X182817749Y-71571000D01*
D14*
G36*
X181088400Y-78115498D02*
G01*
X180834400Y-78115498D01*
X180834400Y-77734498D01*
X181088400Y-77734498D01*
X181088400Y-78115498D01*
G37*
G36*
X189165600Y-72265502D02*
G01*
X188911600Y-72265502D01*
X188911600Y-71884502D01*
X189165600Y-71884502D01*
X189165600Y-72265502D01*
G37*
D15*
%TO.C,U3*%
X174907800Y-68492000D02*
X174907800Y-69508000D01*
X177092200Y-67501400D02*
X177092200Y-69381000D01*
D12*
%TO.C,F2*%
X162030000Y-71900000D02*
X162030000Y-88100000D01*
X162030000Y-88100000D02*
X168970000Y-88100000D01*
X163500000Y-81600000D02*
X163500000Y-78400000D01*
X165500000Y-80750000D02*
X165500000Y-79250000D01*
X167500000Y-78400000D02*
X167500000Y-81600000D01*
X168970000Y-71900000D02*
X162030000Y-71900000D01*
X168970000Y-88100000D02*
X168970000Y-71900000D01*
%TO.C,F1*%
X162030000Y-54400000D02*
X162030000Y-70600000D01*
X162030000Y-70600000D02*
X168970000Y-70600000D01*
X163500000Y-64100000D02*
X163500000Y-60900000D01*
X165500000Y-61750000D02*
X165500000Y-63250000D01*
X167500000Y-60900000D02*
X167500000Y-64100000D01*
X168970000Y-54400000D02*
X162030000Y-54400000D01*
X168970000Y-70600000D02*
X168970000Y-54400000D01*
%TO.C,D5*%
X193377500Y-64540000D02*
X193377500Y-66460000D01*
X193377500Y-66460000D02*
X196062500Y-66460000D01*
X196062500Y-64540000D02*
X193377500Y-64540000D01*
%TO.C,C6*%
X207265000Y-89761252D02*
X207265000Y-89238748D01*
X208735000Y-89761252D02*
X208735000Y-89238748D01*
%TO.C,C12*%
X192265000Y-83238748D02*
X192265000Y-83761252D01*
X193735000Y-83238748D02*
X193735000Y-83761252D01*
%TO.C,C8*%
X192265000Y-93311252D02*
X192265000Y-92788748D01*
X193735000Y-93311252D02*
X193735000Y-92788748D01*
D13*
%TO.C,IC1*%
X196575700Y-83627900D02*
X196575700Y-83942860D01*
X196575700Y-94057140D02*
X196575700Y-94372100D01*
X196575700Y-94372100D02*
X204424300Y-94372100D01*
X204424300Y-83627900D02*
X196575700Y-83627900D01*
X204424300Y-83942860D02*
X204424300Y-83627900D01*
X204424300Y-94372100D02*
X204424300Y-94057140D01*
D14*
G36*
X194569100Y-86015500D02*
G01*
X194315100Y-86015500D01*
X194315100Y-85634500D01*
X194569100Y-85634500D01*
X194569100Y-86015500D01*
G37*
D12*
%TO.C,C15*%
X183473248Y-62803900D02*
X183995752Y-62803900D01*
X183473248Y-64273900D02*
X183995752Y-64273900D01*
%TO.C,C7*%
X192265000Y-88788748D02*
X192265000Y-89311252D01*
X193735000Y-88788748D02*
X193735000Y-89311252D01*
%TO.C,R7*%
X194157936Y-60545000D02*
X195612064Y-60545000D01*
X194157936Y-62365000D02*
X195612064Y-62365000D01*
%TO.C,C13*%
X187495752Y-62803900D02*
X186973248Y-62803900D01*
X187495752Y-64273900D02*
X186973248Y-64273900D01*
%TO.C,C10*%
X187261252Y-69265000D02*
X186738748Y-69265000D01*
X187261252Y-70735000D02*
X186738748Y-70735000D01*
D15*
%TO.C,U4*%
X173907800Y-76492000D02*
X173907800Y-77508000D01*
X176092200Y-75501400D02*
X176092200Y-77381000D01*
D12*
%TO.C,C5*%
X206761252Y-94765000D02*
X206238748Y-94765000D01*
X206761252Y-96235000D02*
X206238748Y-96235000D01*
%TO.C,D1*%
X177860002Y-68054999D02*
X177860002Y-70739999D01*
X177860002Y-70739999D02*
X179780002Y-70739999D01*
X179780002Y-70739999D02*
X179780002Y-68054999D01*
%TO.C,C14*%
X208538748Y-81265000D02*
X209061252Y-81265000D01*
X208538748Y-82735000D02*
X209061252Y-82735000D01*
D11*
%TO.C,U5*%
X211609000Y-54590000D02*
X211609000Y-104882000D01*
X211609000Y-104882000D02*
X230151000Y-104882000D01*
X216943000Y-59162000D02*
X216943000Y-54590000D01*
X224817000Y-54590000D02*
X224817000Y-59162000D01*
X224817000Y-59162000D02*
X216943000Y-59162000D01*
X230151000Y-54590000D02*
X211609000Y-54590000D01*
X230151000Y-104882000D02*
X230151000Y-54590000D01*
D12*
%TO.C,C4*%
X171738748Y-75765000D02*
X172261252Y-75765000D01*
X171738748Y-77235000D02*
X172261252Y-77235000D01*
D11*
%TO.C,IC7*%
X197735896Y-71850000D02*
X197735896Y-82150000D01*
X203264104Y-71850000D02*
X197735896Y-71850000D01*
X203264104Y-71850000D02*
X203264104Y-82150000D01*
X203264104Y-82150000D02*
X197735896Y-82150000D01*
D16*
X202764102Y-81399999D02*
G75*
G02*
X202264104Y-81399999I-249999J0D01*
G01*
X202264104Y-81399999D02*
G75*
G02*
X202764102Y-81399999I249999J0D01*
G01*
D17*
X207041887Y-81445000D02*
G75*
G02*
X206791885Y-81445000I-125001J0D01*
G01*
X206791885Y-81445000D02*
G75*
G02*
X207041887Y-81445000I125001J0D01*
G01*
D12*
%TO.C,D4*%
X176525004Y-76082499D02*
X176525004Y-78767499D01*
X176525004Y-78767499D02*
X178445004Y-78767499D01*
X178445004Y-78767499D02*
X178445004Y-76082499D01*
%TO.C,R3*%
X172490000Y-73127064D02*
X172490000Y-71672936D01*
X174310000Y-73127064D02*
X174310000Y-71672936D01*
%TO.C,C11*%
X189765000Y-72238748D02*
X189765000Y-72761252D01*
X191235000Y-72238748D02*
X191235000Y-72761252D01*
%TD*%
M02*
