M48
; DRILL file {KiCad 8.0.5} date 2025-03-02T16:23:48-0600
; FORMAT={-:-/ absolute / inch / decimal}
; #@! TF.CreationDate,2025-03-02T16:23:48-06:00
; #@! TF.GenerationSoftware,Kicad,Pcbnew,8.0.5
; #@! TF.FileFunction,Plated,1,2,PTH
FMAT,2
INCH
; #@! TA.AperFunction,Plated,PTH,ViaDrill
T1C0.0118
; #@! TA.AperFunction,Plated,PTH,ComponentDrill
T2C0.0402
; #@! TA.AperFunction,Plated,PTH,ComponentDrill
T3C0.0472
; #@! TA.AperFunction,Plated,PTH,ComponentDrill
T4C0.0787
%
G90
G05
T1
X7.6575Y-2.8543
X7.7953Y-3.1102
X7.8937Y-2.9724
X8.0315Y-2.9528
X8.0906Y-2.4606
X8.1102Y-2.5394
X8.1299Y-3.0512
X8.2087Y-2.8346
X8.2677Y-2.7362
X8.3071Y-2.5984
X8.3465Y-2.3622
X8.3661Y-2.5197
X8.4568Y-3.0512
X8.7008Y-2.7756
X8.7008Y-2.9331
X8.7598Y-2.4016
X8.937Y-2.7362
X8.937Y-2.815
X9.0157Y-3.0709
X9.0876Y-2.7097
X9.1339Y-2.6969
X9.1535Y-2.2047
X9.1535Y-2.7559
X9.1535Y-2.8937
X9.1602Y-2.8399
X9.1732Y-2.0669
X9.311Y-2.815
X9.4882Y-2.2638
X9.4882Y-2.9724
X9.685Y-2.7165
X9.7244Y-2.9134
X9.7638Y-2.8543
X9.8071Y-2.815
X9.884Y-2.1084
T2
X9.9709Y-1.9882
X9.9709Y-2.0882
X9.9709Y-2.1882
X9.9709Y-2.2882
X9.9709Y-2.3882
X9.9709Y-2.4882
X9.9709Y-2.5882
X9.9709Y-2.6882
X9.9709Y-2.7882
X9.9709Y-2.8882
X9.9709Y-2.9882
X9.9709Y-3.0882
X9.9709Y-3.1882
X9.9709Y-3.2882
X9.9709Y-3.3882
X10.5709Y-1.9882
X10.5709Y-2.0882
X10.5709Y-2.1882
X10.5709Y-2.2882
X10.5709Y-2.3882
X10.5709Y-2.4882
X10.5709Y-2.5882
X10.5709Y-2.6882
X10.5709Y-2.7882
X10.5709Y-2.8882
X10.5709Y-2.9882
X10.5709Y-3.0882
X10.5709Y-3.1882
X10.5709Y-3.2882
X10.5709Y-3.3882
T3
X7.8447Y-3.3465
X7.8451Y-2.2441
X9.0447Y-3.3465
X9.0451Y-2.2441
T4
X6.8417Y-1.8984
X6.8417Y-3.0709
X6.8417Y-3.6614
X6.8504Y-2.5
X7.4213Y-1.9094
X7.4213Y-2.4913
X7.4213Y-3.0906
X7.4213Y-3.6614
M30
